<?xml version="1.0" standalone="no"?>
<!DOCTYPE svg PUBLIC "-//W3C//DTD SVG 1.1//EN" "http://www.w3.org/Graphics/SVG/1.1/DTD/svg11.dtd" >
<svg xmlns="http://www.w3.org/2000/svg">
<metadata></metadata>
<defs>
<font id="xfinity_sans_regregular" horiz-adv-x="1167" >
<font-face units-per-em="2048" ascent="1581" descent="-467" />
<missing-glyph horiz-adv-x="468" />
<glyph unicode="&#xfb01;" horiz-adv-x="1130" d="M18 926v127h175v192q0 124 71 203.5t195 79.5q111 0 145 -23l-22 -129q-59 13 -105 13q-67 0 -94 -31t-27 -105v-200h246v-127h-246v-926h-163v926h-175zM770 1321v186h188v-186h-188zM782 0v1053h164v-1053h-164z" />
<glyph unicode="&#xfb02;" horiz-adv-x="1130" d="M18 926v127h175v192q0 124 71 203.5t195 79.5q111 0 145 -23l-22 -129q-59 13 -105 13q-67 0 -94 -31t-27 -105v-200h246v-127h-246v-926h-163v926h-175zM782 0v1507h164v-1507h-164z" />
<glyph unicode="&#xfb03;" horiz-adv-x="1728" d="M18 926v127h175v192q0 124 71 203.5t195 79.5q111 0 145 -23l-22 -129q-59 13 -105 13q-67 0 -94 -31t-27 -105v-200h435v192q0 124 71 203.5t195 79.5q111 0 145 -23l-22 -129q-59 13 -105 13q-67 0 -94 -31t-27 -105v-200h246v-127h-246v-926h-163v926h-435v-926h-163 v926h-175zM1368 1321v186h188v-186h-188zM1380 0v1053h164v-1053h-164z" />
<glyph unicode="&#xfb04;" horiz-adv-x="1728" d="M18 926v127h175v192q0 124 71 203.5t195 79.5q111 0 145 -23l-22 -129q-59 13 -105 13q-67 0 -94 -31t-27 -105v-200h435v192q0 124 71 203.5t195 79.5q111 0 145 -23l-22 -129q-59 13 -105 13q-67 0 -94 -31t-27 -105v-200h246v-127h-246v-926h-163v926h-435v-926h-163 v926h-175zM1380 0v1507h164v-1507h-164z" />
<glyph horiz-adv-x="0" />
<glyph horiz-adv-x="682" />
<glyph unicode=" "  horiz-adv-x="468" />
<glyph unicode="&#x09;" horiz-adv-x="468" />
<glyph unicode="&#xa0;" horiz-adv-x="468" />
<glyph unicode="!" horiz-adv-x="616" d="M223 0v219h219v-219h-219zM233 1227v219h195v-219l-41 -752h-111z" />
<glyph unicode="&#x22;" horiz-adv-x="718" d="M115 954l18 326l10 166h211l-43 -166l-86 -326h-110zM428 954l18 326l11 166h211l-43 -166l-86 -326h-111z" />
<glyph unicode="#" horiz-adv-x="1615" d="M102 305v141h328l92 506h-315v142h340l65 352h136l-64 -352h395l66 352h135l-63 -352h296v-142h-321l-92 -506h313v-141h-338l-69 -387h-140l70 387h-393l-70 -387h-139l69 387h-301zM567 446h396l92 506h-396z" />
<glyph unicode="$" d="M135 162l43 157q77 -45 174 -68.5t191 -23.5q59 0 111 10t96.5 31t70 58.5t25.5 87.5q0 39 -17.5 70t-41.5 51.5t-70 39.5t-82 29.5t-98 26.5q-43 11 -69 18t-71 23t-73.5 32t-63.5 43.5t-55.5 58.5t-34.5 75t-14 96q0 146 97.5 232.5t264.5 101.5v217h133v-215 q130 -7 310 -66l-39 -151q-160 75 -340 75q-69 0 -123.5 -16t-91.5 -56t-37 -100q0 -37 16 -67.5t37.5 -49.5t62.5 -37t71.5 -27.5t84.5 -24.5q59 -16 97 -27t87 -29t80 -35t64 -43t51.5 -55t30.5 -68.5t12 -86.5q0 -142 -98 -237.5t-275 -121.5v-289h-133v281 q-101 0 -204 20.5t-179 59.5z" />
<glyph unicode="%" horiz-adv-x="1816" d="M96 997q0 379 320 379q85 0 148 -29.5t99.5 -82.5t54 -119t17.5 -146q0 -190 -81.5 -293.5t-237.5 -103.5q-87 0 -151.5 33.5t-100 91t-52 125t-16.5 145.5zM231 999q0 -282 185 -282q48 0 83 18t54 45t30 67t14 74t3 76q0 32 -2.5 58.5t-8.5 59t-19 57t-32.5 46 t-50.5 33t-71 11.5q-47 0 -81.5 -16t-54 -40.5t-31 -61t-15 -70t-3.5 -75.5zM455 0l776 1364h135l-776 -1364h-135zM1079 383q0 379 320 379q85 0 148 -29.5t99.5 -82.5t54 -119t17.5 -146q0 -190 -81.5 -293.5t-237.5 -103.5q-87 0 -151.5 33.5t-100 91t-52 125 t-16.5 145.5zM1214 385q0 -283 185 -283q48 0 83 18.5t54 45t30 67t14 74.5t3 76q0 39 -3 70.5t-14 69.5t-30 63.5t-54 43t-83 17.5q-47 0 -81.5 -16t-54 -40.5t-31 -61t-15 -69.5t-3.5 -75z" />
<glyph unicode="&#x26;" horiz-adv-x="1398" d="M72 369q0 159 92 270t248 180q-46 50 -75 88.5t-55 102t-26 129.5q0 146 103 237.5t264 91.5q152 0 254 -84t102 -223q0 -238 -328 -368q106 -120 310 -375q131 198 202 358l172 -37q-160 -286 -276 -434q63 -75 128.5 -115.5t147.5 -62.5l-26 -145q-109 12 -191 58.5 t-162 135.5q-92 -97 -196.5 -148t-245.5 -51q-202 0 -322 104.5t-120 287.5zM252 383q0 -123 78 -194.5t207 -71.5q95 0 171.5 41t151.5 123q-28 34 -86.5 106t-94 115t-87 104t-96.5 113q-115 -44 -179.5 -134.5t-64.5 -201.5zM424 1155q0 -59 34.5 -123.5t112.5 -157.5 q127 63 188.5 124t61.5 147q0 87 -57 141.5t-143 54.5t-141.5 -53t-55.5 -133z" />
<glyph unicode="'" horiz-adv-x="403" d="M115 954l18 326l10 166h211l-43 -166l-86 -326h-110z" />
<glyph unicode="(" horiz-adv-x="733" d="M125 608q0 157 38.5 310t101 270.5t132.5 206t142 141.5h141v-29q-162 -124 -274.5 -375.5t-112.5 -523.5t112.5 -526.5t274.5 -378.5v-29h-141q-71 53 -142 142.5t-133 208.5t-100.5 272.5t-38.5 310.5z" />
<glyph unicode=")" horiz-adv-x="733" d="M53 -297q162 124 274.5 378.5t112.5 526.5t-112.5 523.5t-274.5 375.5v29h142q72 -53 142 -141.5t132 -206t100.5 -270.5t38.5 -310t-38.5 -310.5t-100.5 -272.5t-132.5 -208.5t-141.5 -142.5h-142v29z" />
<glyph unicode="*" horiz-adv-x="815" d="M61 1137l52 151l100 -31l147 -100l17 19l-47 163v107h162v-107l-48 -163l19 -19l141 98l103 31l51 -151l-103 -35l-174 -6l-6 -25l135 -104l66 -86l-133 -97l-64 88l-57 164h-25l-61 -164l-62 -88l-133 97l66 88l137 106l-6 25l-176 4z" />
<glyph unicode="+" d="M14 494v155h488v492h166v-492h485v-155h-485v-494h-166v494h-488z" />
<glyph unicode="," horiz-adv-x="444" d="M43 -274l135 493h219l-217 -493h-137z" />
<glyph unicode="-" horiz-adv-x="628" d="M94 494v157h441v-157h-441z" />
<glyph unicode="." horiz-adv-x="444" d="M113 0v219h219v-219h-219z" />
<glyph unicode="/" horiz-adv-x="894" d="M0 -236l745 1682h150l-750 -1682h-145z" />
<glyph unicode="0" d="M102 700q0 684 482 684q104 0 187 -37.5t137.5 -100.5t90 -151.5t51 -186t15.5 -208.5q0 -716 -481 -716q-107 0 -191.5 40.5t-138 107.5t-88.5 161t-49.5 194t-14.5 213zM276 700q0 -53 2 -98t9 -106t19.5 -109t35.5 -98.5t54.5 -83.5t79 -54.5t106.5 -21.5t106 19.5 t79 50t55.5 78t36.5 94.5t20.5 108.5t9.5 110.5t2 110q0 539 -307 539q-66 0 -117 -22.5t-84 -65t-55 -92t-33 -114.5t-15 -121.5t-4 -123.5z" />
<glyph unicode="1" d="M246 1069v164l350 131h145l-16 -141v-1223h-174v1165l6 33h-6z" />
<glyph unicode="2" d="M127 1075q55 132 172 220.5t287 88.5q99 0 179 -32t130 -86t77 -122t27 -143q0 -107 -50 -190.5t-148 -183.5l-469 -477h676v-150h-865v160l535 561q147 154 147 276q0 97 -73 169.5t-187 72.5q-182 0 -295 -215z" />
<glyph unicode="3" d="M121 1141q164 243 438 243q172 0 285.5 -90t113.5 -241q0 -108 -56 -181t-136 -102v-14q102 -20 172 -106t70 -214q0 -113 -59.5 -206.5t-159.5 -153.5t-229 -92.5t-271 -32.5q-66 0 -121 10l-10 154q99 -6 133 -6q258 0 400.5 96t142.5 239q0 69 -35.5 117.5t-84.5 68 t-104 19.5q-46 0 -219 -37l-26 142l151 26q48 9 93.5 29.5t85 51.5t63.5 76t24 97q0 89 -64.5 147t-174.5 58q-80 0 -136.5 -35t-152.5 -131z" />
<glyph unicode="4" d="M68 303v189l634 872h170v-920h240v-141h-240v-303h-174v303h-630zM199 444h499v504l15 182l-11 3z" />
<glyph unicode="5" d="M184 115q99 -6 135 -6q266 0 401.5 98.5t135.5 284.5q0 260 -260 260q-163 0 -311 -119l-95 39l48 692h751v-150h-608l-31 -413q83 56 146 79t145 23q99 0 175 -31.5t122 -88t69 -129.5t23 -160q0 -113 -38.5 -205.5t-105 -154.5t-158 -103.5t-194 -60.5t-217.5 -19 q-67 0 -122 10z" />
<glyph unicode="6" d="M129 567q0 118 19.5 233t74 241.5t139.5 211.5q167 164 431 164q67 0 122 -10l11 -154q-116 7 -131 7q-210 0 -330 -140.5t-162 -417.5q123 168 336 168q115 0 208 -49t149.5 -148.5t56.5 -234.5q0 -109 -37 -196.5t-101 -143t-147.5 -85t-179.5 -29.5q-182 0 -293 100 q-166 146 -166 483zM301 449q0 -131 81 -225.5t222 -94.5q123 0 198 78t75 223q0 141 -74.5 215t-208.5 74q-185 0 -258 -127q-35 -59 -35 -143z" />
<glyph unicode="7" d="M154 1214v150h903v-139q-38 -40 -58 -62.5t-78 -95t-97.5 -135.5t-96.5 -170t-96.5 -213.5t-76.5 -251t-56 -297.5h-195q19 164 71 332.5t115 301.5t137 254t133.5 199t108.5 127h-714z" />
<glyph unicode="8" d="M111 391q0 122 79.5 216.5t174.5 107.5v8q-70 14 -141.5 102t-71.5 197q0 146 118 254t314 108t314 -108t118 -254q0 -109 -71.5 -197t-141.5 -102v-8q95 -13 174.5 -107.5t79.5 -216.5q0 -104 -37.5 -183.5t-103.5 -127.5t-149.5 -72t-182.5 -24t-182.5 24t-149.5 72 t-103.5 127.5t-37.5 183.5zM293 393q0 -264 293 -264q291 0 291 264q0 250 -293 250q-291 0 -291 -250zM324 1012q0 -100 68 -164t194 -64q124 0 192 64t68 164q0 95 -69 161t-193 66q-123 0 -191.5 -66t-68.5 -161z" />
<glyph unicode="9" d="M113 930q0 109 37 196.5t101 143t147.5 85t179.5 29.5q181 0 292 -100q166 -146 166 -483q0 -118 -19.5 -233t-74 -241.5t-139.5 -211.5q-167 -164 -430 -164q-68 0 -123 10l-10 154q99 -6 131 -6q210 0 329.5 140t161.5 417q-123 -168 -336 -168q-178 0 -295.5 115 t-117.5 317zM289 938q0 -141 74 -215t208 -74q185 0 258 127q35 59 35 144q0 131 -81 225t-222 94q-123 0 -197.5 -78t-74.5 -223z" />
<glyph unicode=":" horiz-adv-x="567" d="M174 0v219h219v-219h-219zM174 834v219h219v-219h-219z" />
<glyph unicode=";" horiz-adv-x="567" d="M96 -274l135 493h220l-218 -493h-137zM174 834v219h219v-219h-219z" />
<glyph unicode="&#x3c;" d="M57 516v109l1053 516v-185l-686 -309l-158 -65v-25l158 -57l686 -312v-184z" />
<glyph unicode="=" d="M57 221v152h1053v-152h-1053zM57 766v154h1053v-154h-1053z" />
<glyph unicode="&#x3e;" d="M57 4v184l686 312l158 57v25l-158 65l-686 309v185l1053 -516v-109z" />
<glyph unicode="?" horiz-adv-x="911" d="M104 1284q56 77 158.5 127.5t218.5 50.5q153 0 255 -82.5t102 -226.5q0 -73 -27 -136t-64.5 -108t-109.5 -114l-29.5 -29.5t-29 -29.5t-23.5 -26t-23.5 -28t-18 -26t-17.5 -30.5t-11.5 -30.5t-10.5 -36.5t-4.5 -38t-2.5 -45.5h-152q0 48 3 82.5t14.5 68.5t21.5 55.5 t38 56.5t49.5 58.5t68.5 73.5q96 88 134 139.5t38 120.5q0 52 -19.5 91t-52 60t-67.5 30.5t-72 9.5q-152 0 -272 -123zM291 0v219h219v-219h-219z" />
<glyph unicode="@" horiz-adv-x="2148" d="M168 494q0 173 54 327.5t149.5 271t223 202t279 129.5t312.5 44q181 0 334.5 -56.5t258 -154.5t163.5 -231.5t59 -284.5q0 -118 -31.5 -225.5t-84.5 -186.5t-121.5 -137.5t-144 -88t-149.5 -29.5q-101 0 -163 50.5t-62 143.5q-78 -93 -171 -142.5t-189 -49.5 q-124 0 -210.5 92t-86.5 268q0 124 50 239.5t127 193.5t168.5 124.5t176.5 46.5q104 0 177 -62.5t91 -152.5l58 174h149l-205 -626q-8 -21 -8 -49q0 -59 35.5 -92t97.5 -33q63 0 128 39t117.5 107t86 171t33.5 219q0 128 -49.5 239.5t-138 192.5t-217 127.5t-279.5 46.5 q-174 0 -333 -61t-279 -169.5t-191.5 -268.5t-71.5 -346q0 -148 45.5 -275t122 -215.5t176.5 -151.5t208.5 -92.5t217.5 -29.5q156 0 333 40.5t276 90.5l43 -107q-104 -57 -293.5 -104t-364.5 -47q-104 0 -209.5 25t-207.5 72.5t-190.5 124t-155.5 172t-105.5 223.5 t-38.5 272zM748 455q0 -117 49.5 -178.5t128.5 -61.5q154 0 311 170l94 293q-14 91 -74.5 155t-146.5 64q-57 0 -120 -32t-117 -87t-89.5 -140.5t-35.5 -182.5z" />
<glyph unicode="A" horiz-adv-x="1290" d="M74 0l477 1446h194l467 -1446h-184l-104 342h-576l-106 -342h-168zM395 487h486l-203 646l-29 127h-20l-31 -127z" />
<glyph unicode="B" horiz-adv-x="1337" d="M205 0v1446h467q72 0 139 -10.5t131 -35.5t111 -62.5t75.5 -96t28.5 -131.5q0 -123 -60 -206t-184 -113v-15q60 -8 115.5 -34.5t101.5 -69.5t73.5 -109t27.5 -145q0 -98 -27 -172t-73 -120.5t-116 -75t-147.5 -39.5t-175.5 -11h-487zM379 145h371q297 0 297 279 q0 122 -97 193t-282 71h-289v-543zM379 831h229q186 0 272.5 62.5t86.5 189.5q0 97 -79.5 157t-238.5 60h-270v-469z" />
<glyph unicode="C" horiz-adv-x="1343" d="M117 717q0 155 44.5 290.5t127.5 238.5t211 162.5t286 59.5q264 0 431 -106l-41 -158q-92 57 -182 88t-214 31t-218.5 -47.5t-151 -130.5t-85 -189t-28.5 -231q0 -89 15.5 -172t51.5 -162t90 -137t138 -93.5t188 -35.5q126 0 218.5 30.5t179.5 86.5l39 -156 q-167 -106 -443 -106q-207 0 -357 95t-225 260t-75 382z" />
<glyph unicode="D" horiz-adv-x="1488" d="M205 0v1446h442q154 0 280.5 -40.5t225 -124t153 -223t54.5 -325.5q0 -158 -36.5 -283t-100 -208.5t-154.5 -138.5t-195 -79t-227 -24h-442zM379 145h287q108 0 195 31.5t145.5 85.5t97.5 129t56.5 160t17.5 182q0 87 -16.5 166.5t-55 153.5t-96 128t-146 86.5 t-198.5 32.5h-287v-1155z" />
<glyph unicode="E" horiz-adv-x="1306" d="M205 0v1446h942v-146h-768v-475h676v-145h-676v-535h788v-145h-962z" />
<glyph unicode="F" horiz-adv-x="1175" d="M205 0v1446h893v-146h-719v-475h629v-145h-629v-680h-174z" />
<glyph unicode="G" horiz-adv-x="1447" d="M117 719q0 158 48.5 295t137.5 238t223.5 158.5t298.5 57.5q122 0 240 -23t190 -63l-41 -157q-185 98 -397 98q-166 0 -285 -77t-177 -210t-58 -309q0 -126 31.5 -233t93 -190.5t162.5 -131t231 -47.5q63 0 102.5 2.5t98 15t112.5 37.5v414h-342v143h498v-647 q-72 -49 -213 -79.5t-264 -30.5q-139 0 -254 40t-194.5 109t-135 163.5t-81 201.5t-25.5 225z" />
<glyph unicode="H" horiz-adv-x="1445" d="M205 0v1446h174v-641h688v641h174v-1446h-174v662h-688v-662h-174z" />
<glyph unicode="I" horiz-adv-x="583" d="M205 0v1446h174v-1446h-174z" />
<glyph unicode="J" horiz-adv-x="972" d="M76 84l41 160q144 -119 280 -119q219 0 219 262v1059h170v-1090q0 -170 -98 -273t-285 -103q-88 0 -176.5 29t-150.5 75z" />
<glyph unicode="K" horiz-adv-x="1380" d="M205 0v1446h174v-746l704 746h213l-542 -563l622 -883h-219l-522 760l-256 -254v-506h-174z" />
<glyph unicode="L" horiz-adv-x="1060" d="M205 0v1446h174v-1301h665v-145h-839z" />
<glyph unicode="M" horiz-adv-x="1828" d="M205 0v1446h303l407 -1196h13l409 1196h287v-1446h-170v997l10 301h-20l-453 -1298h-153l-453 1298h-20l10 -301v-997h-170z" />
<glyph unicode="N" horiz-adv-x="1470" d="M205 0v1446h241l529 -995l127 -291h20l-22 325v961h166v-1446h-234l-536 997l-127 289h-21l23 -325v-961h-166z" />
<glyph unicode="O" horiz-adv-x="1542" d="M117 725q0 181 50 324.5t139 234t207 137.5t257 47q140 0 258 -47t207.5 -137t139.5 -233.5t50 -325.5q0 -143 -33.5 -264t-93 -209t-141.5 -149.5t-180 -92t-207 -30.5q-144 0 -263 47.5t-206 139t-135.5 234t-48.5 324.5zM297 725q0 -123 28.5 -229t84.5 -190 t148.5 -132.5t211.5 -48.5q123 0 215 43.5t148.5 124t84 189t27.5 243.5q0 99 -17 186t-54.5 163.5t-92 131t-134 86t-177.5 31.5q-158 0 -266 -78t-157.5 -210t-49.5 -310z" />
<glyph unicode="P" horiz-adv-x="1277" d="M205 0v1446h506q268 0 385 -127q102 -108 102 -293q0 -201 -117 -315q-59 -57 -144.5 -85t-225.5 -28h-332v-598h-174zM379 743h354q145 0 215 70q72 69 72 213q0 122 -62 193q-71 81 -225 81h-354v-557z" />
<glyph unicode="Q" horiz-adv-x="1542" d="M117 725q0 181 50 324.5t139 234t207 137.5t257 47q140 0 258 -47t207.5 -137t139.5 -233.5t50 -325.5q0 -197 -61.5 -348t-171.5 -248l188 -229l-163 -37l-152 182q-133 -65 -295 -65q-144 0 -263 47.5t-206 139t-135.5 234t-48.5 324.5zM297 725q0 -123 28.5 -229 t84.5 -190t148.5 -132.5t211.5 -48.5q115 0 199 37l-269 327l123 91l273 -332q149 152 149 477q0 99 -17 186t-54.5 163.5t-92 131t-134 86t-177.5 31.5q-158 0 -266 -78t-157.5 -210t-49.5 -310z" />
<glyph unicode="R" horiz-adv-x="1361" d="M205 0v1446h549q240 0 360 -123q105 -108 105 -281q0 -323 -304 -395l398 -647h-201l-375 621h-358v-621h-174zM379 764h377q152 0 219 70.5t67 207.5q0 114 -69.5 186t-216.5 72h-377v-536z" />
<glyph unicode="S" horiz-adv-x="1128" d="M94 49l43 158q84 -44 186 -68t197 -24q68 0 127 12.5t110 39.5t80 76t29 115q0 41 -12.5 77t-30 62t-48 49t-55.5 37.5t-63.5 29t-61 21.5t-58.5 17q-47 13 -77.5 22.5t-79.5 29t-81.5 40t-70 53.5t-60 71t-38 91t-15.5 115q0 132 64.5 222.5t173 131.5t255.5 41 q178 0 373 -67l-39 -152q-163 76 -342 76q-63 0 -116 -12t-98 -37.5t-71 -73t-26 -112.5q0 -38 10 -70.5t24 -55.5t41.5 -44.5t49 -34.5t60 -27.5t62 -22t66.5 -20.5q79 -24 139.5 -48t120 -61t97.5 -80.5t61.5 -105t23.5 -135.5q0 -192 -143.5 -304t-396.5 -112 q-106 0 -217 20.5t-193 59.5z" />
<glyph unicode="T" horiz-adv-x="1140" d="M47 1300v146h1047v-146h-435v-1300h-178v1300h-434z" />
<glyph unicode="U" horiz-adv-x="1400" d="M182 477v969h174v-948q0 -52 1.5 -84t8.5 -76t20 -71t38.5 -57t61.5 -46.5t90 -27.5t124 -11t123.5 11t90 27.5t61.5 46.5t38.5 57t20.5 70.5t8.5 76t1.5 84.5v948h175v-969q0 -57 -4.5 -103t-18 -99t-36 -94t-62 -80t-92.5 -64.5t-130.5 -41t-173.5 -15.5t-173.5 15.5 t-131 41t-93.5 64.5t-63 80t-36.5 94t-18 99.5t-4.5 102.5z" />
<glyph unicode="V" horiz-adv-x="1234" d="M51 1446h197l336 -1120l28 -127h21l31 127l333 1120h193l-477 -1446h-193z" />
<glyph unicode="W" horiz-adv-x="1945" d="M90 1446h189l245 -1131l25 -147h20l25 147l264 1131h229l265 -1131l26 -147h21l22 147l246 1131h191l-359 -1446h-231l-264 1130l-25 148h-21l-24 -148l-258 -1130h-230z" />
<glyph unicode="X" horiz-adv-x="1277" d="M55 0l473 754l-462 692h223l352 -580l371 580h198l-469 -692l480 -754h-228l-360 637l-377 -637h-201z" />
<glyph unicode="Y" horiz-adv-x="1277" d="M25 1446h213l411 -766l414 766h194l-532 -926v-520h-174v520z" />
<glyph unicode="Z" horiz-adv-x="1259" d="M96 0v125l836 1175h-762v146h983v-125l-840 -1176h850v-145h-1067z" />
<glyph unicode="[" horiz-adv-x="745" d="M156 -326v1862h465v-123h-314v-1616h314v-123h-465z" />
<glyph unicode="\" horiz-adv-x="894" d="M0 1446h150l745 -1682h-145z" />
<glyph unicode="]" horiz-adv-x="745" d="M125 -203h313v1616h-313v123h465v-1862h-465v123z" />
<glyph unicode="^" d="M20 414l506 950h109l512 -950h-195l-282 596l-76 157h-25l-71 -157l-283 -596h-195z" />
<glyph unicode="_" d="M-10 -324h1188v-127h-1188v127z" />
<glyph unicode="`" horiz-adv-x="839" d="M86 1470v60h172l240 -244v-55h-80z" />
<glyph unicode="a" horiz-adv-x="1081" d="M96 281q0 81 33 141.5t107.5 107t203.5 71.5t312 26v86q0 111 -49 163t-166 52q-145 0 -324 -80l-61 125q54 37 160 66.5t229 29.5q187 0 280.5 -87.5t93.5 -287.5v-420q0 -170 58 -274h-164q-39 88 -43 162q-115 -178 -342 -178q-149 0 -238.5 78.5t-89.5 218.5z M264 295q0 -178 193 -178q132 0 213.5 75.5t81.5 204.5v125q-129 -7 -221.5 -24t-143 -37.5t-79.5 -51t-36.5 -55.5t-7.5 -59z" />
<glyph unicode="b" horiz-adv-x="1175" d="M184 0v1507h164v-612q52 88 122.5 131t172.5 43q108 0 191 -42.5t133 -117t75 -170.5t25 -209q0 -53 -5 -104.5t-18.5 -106.5t-33.5 -103t-52.5 -91.5t-74 -74t-99 -48.5t-125.5 -18q-100 0 -179 36t-142 130l-21 -150h-133zM348 377q0 -44 16 -87t47.5 -81t86 -61 t123.5 -23q68 0 119 24t80.5 61.5t47 93t23.5 108t6 116.5t-6 116.5t-23.5 107t-47 92t-80 61t-117.5 23.5q-56 0 -103 -16t-78 -41.5t-53 -59t-31.5 -68.5t-9.5 -69v-297z" />
<glyph unicode="c" horiz-adv-x="997" d="M109 516q0 250 124 401.5t353 151.5q174 0 303 -82l-45 -141q-120 82 -256 82q-155 0 -232 -110.5t-77 -297.5q0 -62 7.5 -114.5t29 -106t55.5 -90.5t90.5 -60.5t130.5 -23.5q136 0 252 82l45 -141q-129 -82 -307 -82q-119 0 -210.5 39.5t-148 111.5t-85.5 168t-29 213z " />
<glyph unicode="d" horiz-adv-x="1175" d="M109 530q0 114 25 209.5t74.5 170t132.5 117t191 42.5q104 0 174 -39t121 -125v602h164v-1507h-133l-20 160q-117 -176 -322 -176q-94 0 -167.5 34.5t-117.5 89t-72.5 129t-39 145.5t-10.5 148zM279 528q0 -64 6 -116.5t23.5 -108t47 -93t80.5 -61.5t119 -24 q69 0 123.5 23t85.5 61t47 81t16 87v297q0 44 -16 87t-47.5 81.5t-86 62t-124.5 23.5q-67 0 -117.5 -23.5t-80 -61t-47 -92t-23.5 -107t-6 -116.5z" />
<glyph unicode="e" horiz-adv-x="1105" d="M109 510q0 247 127.5 403t343.5 156q197 0 306 -130t109 -339q0 -34 -6 -104h-710q2 -74 17.5 -135.5t50.5 -117t100.5 -87t156.5 -31.5q84 0 154 27.5t147 83.5l66 -130q-156 -122 -367 -122q-125 0 -221 40t-155 111.5t-89 166t-30 208.5zM285 623h544q0 137 -67.5 224 t-188.5 87q-116 0 -192 -82t-96 -229z" />
<glyph unicode="f" horiz-adv-x="598" d="M18 926v127h175v192q0 124 71 203.5t195 79.5q111 0 145 -23l-22 -129q-59 13 -105 13q-67 0 -94 -31t-27 -105v-200h246v-127h-246v-926h-163v926h-175z" />
<glyph unicode="g" horiz-adv-x="1175" d="M109 535q0 112 25 206t75.5 169t135 117t196.5 42q100 0 168 -39.5t129 -134.5l20 158h133v-1084q0 -202 -105.5 -319t-322.5 -117q-204 0 -368 86l45 143q69 -42 143.5 -65t181.5 -23q59 0 102.5 13t81.5 45.5t58 96.5t20 159v162q-100 -166 -309 -166q-93 0 -166 34.5 t-117.5 89.5t-74 129t-40.5 147t-11 151zM279 526q0 -64 6 -117t24 -107.5t48 -92t80.5 -61t117.5 -23.5q69 0 123.5 23t85.5 61t47 81t16 87v297q0 45 -16 88t-47.5 81t-86 61.5t-124.5 23.5q-67 0 -117.5 -24t-80 -61.5t-47 -92.5t-23.5 -107.5t-6 -116.5z" />
<glyph unicode="h" horiz-adv-x="1163" d="M184 0v1507h164v-624q55 107 127 146.5t178 39.5q155 0 252 -100q92 -98 92 -287v-682h-163v711q0 96 -56 155q-59 62 -170 62q-119 0 -189.5 -74.5t-70.5 -183.5v-670h-164z" />
<glyph unicode="i" horiz-adv-x="532" d="M172 1321v186h188v-186h-188zM184 0v1053h164v-1053h-164z" />
<glyph unicode="j" horiz-adv-x="532" d="M-2 -451l12 140q36 -4 53 -4q67 0 94 30.5t27 104.5v1233h164v-1225q0 -124 -71 -203.5t-195 -79.5q-38 0 -84 4zM172 1321v186h188v-186h-188z" />
<glyph unicode="k" horiz-adv-x="1060" d="M184 0v1507h164v-942l473 488h209l-428 -408l445 -645h-209l-349 535l-141 -129v-406h-164z" />
<glyph unicode="l" horiz-adv-x="532" d="M184 0v1507h164v-1507h-164z" />
<glyph unicode="m" horiz-adv-x="1753" d="M164 1053h153l21 -185q95 201 303 201q240 0 311 -184q57 102 130.5 143t170.5 41q155 0 246 -94q90 -97 90 -293v-682h-166v711q0 41 -9 76t-30 68.5t-63.5 53t-101.5 19.5q-111 0 -180.5 -75.5t-69.5 -182.5v-670h-166v711q0 41 -9 76t-30.5 68.5t-64 53t-101.5 19.5 q-111 0 -180.5 -75.5t-69.5 -182.5v-670h-164v868z" />
<glyph unicode="n" horiz-adv-x="1163" d="M164 1053h153l21 -185q55 112 132.5 156.5t182.5 44.5q155 0 252 -100q92 -98 92 -287v-682h-163v711q0 98 -54 155q-59 62 -172 62q-119 0 -189.5 -74.5t-70.5 -183.5v-670h-164v868z" />
<glyph unicode="o" horiz-adv-x="1142" d="M109 528q0 152 53 273.5t160 194.5t251 73q212 0 336.5 -150t124.5 -391q0 -111 -31 -209.5t-88 -173t-145.5 -118t-196.5 -43.5q-215 0 -339.5 148.5t-124.5 395.5zM279 528q0 -81 15 -149.5t47 -127.5t91 -92.5t139 -33.5q78 0 136 31.5t91.5 88t49.5 127t16 156.5 q0 81 -15 149t-47.5 126.5t-91.5 91.5t-139 33q-78 0 -136 -31t-91 -87t-49 -126t-16 -156z" />
<glyph unicode="p" horiz-adv-x="1175" d="M164 1053h153l21 -168q63 98 132 141t173 43q108 0 191 -42.5t133 -117t75 -169t25 -205.5q0 -77 -11.5 -150t-41 -147.5t-74 -129.5t-117 -89.5t-164.5 -34.5q-217 0 -311 155v-590h-164v1319zM348 377q0 -97 71 -174.5t187 -77.5q72 0 125.5 22.5t84.5 58t50 89.5 t25 107t6 120q0 66 -6 119.5t-23.5 109t-47 92.5t-80 61t-117.5 24q-70 0 -125 -23.5t-86.5 -61.5t-47.5 -81.5t-16 -87.5v-297z" />
<glyph unicode="q" horiz-adv-x="1175" d="M109 535q0 111 25 205.5t74.5 169t132.5 117t191 42.5q107 0 175.5 -39t130.5 -135l20 158h133v-1504h-164v601q-100 -166 -311 -166q-77 0 -140.5 24t-107 66t-75.5 95t-49.5 116.5t-26 125t-8.5 124.5zM279 522q0 -67 6 -120t25 -107t50 -89.5t84 -58t125 -22.5 q116 0 187 77.5t71 174.5v297q0 45 -16 88t-47.5 81t-86 61.5t-124.5 23.5q-67 0 -117.5 -24t-80 -61t-47 -92.5t-23.5 -109t-6 -119.5z" />
<glyph unicode="r" horiz-adv-x="722" d="M164 1053h153l21 -185q52 90 111.5 140.5t140.5 50.5q46 0 110 -15l-20 -174q-64 13 -107 13q-106 0 -165.5 -58t-59.5 -163v-662h-164v870z" />
<glyph unicode="s" horiz-adv-x="917" d="M102 33l33 139q132 -70 275 -70q67 0 120 14t91 52.5t38 97.5q0 36 -14.5 65t-35 48.5t-61 39t-73.5 31t-90 29.5q-51 17 -94.5 40.5t-85 59t-65 86t-23.5 111.5q0 139 101 216t267 77q180 0 299 -55l-34 -137q-159 61 -275 61q-90 0 -146.5 -35.5t-56.5 -109.5 q0 -29 8 -52t26 -41.5t38 -32t55 -27t64.5 -22.5t77.5 -22q280 -78 280 -305q0 -81 -33.5 -144t-91.5 -101t-130 -57.5t-154 -19.5q-93 0 -184.5 21.5t-125.5 42.5z" />
<glyph unicode="t" horiz-adv-x="679" d="M33 926v127h172l20 280h144v-280h249v-127h-249v-676q0 -119 102 -119h158l-11 -127q-49 -20 -172 -20q-114 0 -177.5 68.5t-63.5 170.5v703h-172z" />
<glyph unicode="u" horiz-adv-x="1163" d="M164 371v682h164v-711q0 -100 53 -156q58 -61 172 -61q119 0 189.5 74.5t70.5 183.5v670h164v-869l20 -184h-153l-21 184q-55 -112 -132.5 -156t-182.5 -44q-155 0 -252 100q-92 98 -92 287z" />
<glyph unicode="v" horiz-adv-x="962" d="M12 1053h189l256 -764l22 -92h10l25 92l260 764h178l-389 -1053h-166z" />
<glyph unicode="w" horiz-adv-x="1480" d="M39 1053h180l176 -701l21 -108h10l27 108l204 701h170l207 -701l25 -108h10l23 108l174 701h180l-297 -1053h-158l-221 733l-22 109h-11l-22 -109l-221 -733h-158z" />
<glyph unicode="x" horiz-adv-x="966" d="M33 0l352 539l-332 514h197l231 -404l244 404h180l-325 -508l346 -545h-201l-248 428l-258 -428h-186z" />
<glyph unicode="y" horiz-adv-x="964" d="M6 1053h184l275 -768l22 -92h11l24 92l248 768h182l-440 -1205q-18 -50 -36.5 -91t-44 -82t-53.5 -68.5t-64.5 -44.5t-77.5 -17q-72 0 -99 15l-14 127q109 0 153 24.5t74 108.5l60 164z" />
<glyph unicode="z" horiz-adv-x="907" d="M76 0v102l555 824h-506v127h698v-103l-555 -823h572v-127h-764z" />
<glyph unicode="{" horiz-adv-x="845" d="M78 543v151h127q58 0 95.5 49.5t35.5 112.5q0 17 -8 66l-49 305q-3 18 -3 39q0 101 80 178q45 43 106 67.5t118 24.5h163v-123h-120q-89 0 -139 -44.5t-50 -117.5q0 -42 8 -86l56 -331q3 -16 -17 -39l-164 -168v-17l164 -170q19 -19 17 -39l-56 -350q-8 -52 -8 -98 q0 -65 50 -110.5t139 -45.5h120v-123h-163q-56 0 -115.5 23t-102.5 65q-86 80 -86 185q0 19 3 37l49 331q8 63 8 66q0 63 -37 112.5t-94 49.5h-127z" />
<glyph unicode="|" horiz-adv-x="790" d="M297 -348v2068h197v-2068h-197z" />
<glyph unicode="}" horiz-adv-x="845" d="M102 -203h121q89 0 139 45.5t50 110.5q0 40 -9 98l-55 350q-2 20 17 39l163 170v17l-163 168q-20 23 -17 39l55 331q9 49 9 86q0 73 -50 117.5t-139 44.5h-121v123h164q57 0 117.5 -24.5t105.5 -67.5q80 -77 80 -178q0 -27 -2 -39l-49 -305q-8 -49 -8 -66 q-2 -63 35.5 -112.5t95.5 -49.5h127v-151h-127q-57 0 -94 -49.5t-37 -112.5q0 -3 8 -66l49 -331q2 -12 2 -37q0 -105 -86 -185q-43 -42 -102 -65t-115 -23h-164v123z" />
<glyph unicode="~" d="M78 539q70 94 158 149t167 55q45 0 89 -21t78.5 -51t68 -60t71.5 -51t74 -21q91 0 183 129l123 -86q-70 -92 -158.5 -145.5t-167.5 -53.5q-45 0 -89 20.5t-78.5 49.5t-68 58.5t-71.5 50t-74 20.5q-87 0 -182 -123z" />
<glyph unicode="&#xa1;" horiz-adv-x="616" d="M174 1227v219h219v-219h-219zM188 0v219l41 752h111l43 -752v-219h-195z" />
<glyph unicode="&#xa2;" d="M170 516q0 245 119.5 396t339.5 157l47 295h133l-49 -305q103 -17 190 -72l-45 -141q-120 82 -256 82q-156 0 -236.5 -111t-80.5 -297q0 -61 8.5 -114.5t31 -106.5t57.5 -90.5t92.5 -60.5t131.5 -23q136 0 252 82l45 -141q-129 -82 -307 -82q-23 0 -63 4l-52 -318h-133 l60 344q-142 53 -213.5 184.5t-71.5 317.5z" />
<glyph unicode="&#xa3;" d="M59 14v136q79 -9 105 -9q58 0 103 19t69.5 47t40 65.5t20 67t4.5 59.5q0 99 -73 238h-269v127h197q-76 148 -76 262q0 160 119.5 259t333.5 99q108 0 207 -28.5t159 -77.5l-61 -123q-176 84 -315 84q-127 0 -198 -56.5t-71 -158.5q0 -61 22.5 -121.5t65.5 -138.5h351 v-127h-287q51 -120 51 -217q0 -121 -68 -215q56 -23 82 -32.5t78 -20.5t107 -11q63 0 121 14t161 52v-141q-34 -29 -116 -54.5t-170 -25.5q-81 0 -152.5 24.5t-189.5 83.5q-94 -102 -244 -102q-75 0 -107 22z" />
<glyph unicode="&#xa4;" d="M121 -115l147 303q-123 111 -123 310v254q0 198 123 309l-147 303h153l105 -234q84 37 203 37q128 0 223 -45l108 242h154l-156 -315q111 -111 111 -297v-254q0 -182 -111 -293l156 -320h-154q-108 242 -110 242q-95 -45 -221 -45q-119 0 -203 37l-105 -234h-153z M307 537q0 -156 62 -235t213 -79q76 0 132 26.5t86.5 72t45 99t14.5 116.5v176q0 155 -63.5 234t-214.5 79t-213 -79t-62 -234v-176z" />
<glyph unicode="&#xa5;" d="M68 467v127h389l-86 190h-303v127h239l-221 453h205l303 -694l301 694h188l-223 -453h240v-127h-305l-86 -190h391v-127h-428v-467h-174v467h-430z" />
<glyph unicode="&#xa6;" horiz-adv-x="790" d="M297 -195v725h197v-725h-197zM297 840v727h197v-727h-197z" />
<glyph unicode="&#xa7;" horiz-adv-x="1290" d="M123 578q0 119 64 200.5t171 120.5q-86 80 -86 201q0 131 101 207.5t280 76.5q81 0 172.5 -15t155.5 -40l-35 -137q-181 61 -305 61q-213 0 -213 -147q0 -31 9 -56t32 -45t46 -34t67.5 -28.5t79 -24.5t96.5 -25q64 -17 114 -35t109 -51.5t97.5 -73.5t64.5 -102.5 t26 -138.5q0 -121 -64 -203t-171 -119q86 -86 86 -201q0 -130 -106.5 -207t-295.5 -77q-81 0 -172 15t-155 40l35 137q181 -61 305 -61q233 0 233 147q0 31 -9 56t-31.5 44.5t-46 34t-67.5 29t-78.5 24.5t-96.5 25q-64 17 -114.5 35t-109 51.5t-97.5 74t-65 103t-26 138.5z M285 582q0 -32 5.5 -58t20 -48t29.5 -39t45.5 -34t55 -29t71.5 -27.5t81.5 -25.5t96.5 -28q51 -14 109 -37q91 10 150 68.5t59 162.5q0 36 -9 65.5t-22.5 52t-43.5 43.5t-55.5 35t-76.5 31.5t-89 29.5t-110 32q-51 11 -108 37q-91 -11 -150 -69.5t-59 -161.5z" />
<glyph unicode="&#xa8;" horiz-adv-x="839" d="M119 1272v174h176v-174h-176zM547 1272v174h176v-174h-176z" />
<glyph unicode="&#xa9;" horiz-adv-x="1839" d="M63 684q0 169 67 322t180 262.5t268 174t325 64.5t325 -64.5t267.5 -174.5t179 -262.5t66.5 -321.5q0 -170 -66.5 -323.5t-179 -263.5t-267.5 -175t-325 -65t-325 65t-268 175t-180 263.5t-67 323.5zM205 684q0 -143 56 -273.5t150 -224t223 -149t269 -55.5 q142 0 271 55.5t222 149.5t148 224t55 273q0 189 -93 350.5t-253.5 256.5t-349.5 95q-187 0 -348 -95t-255.5 -257t-94.5 -350zM469 686q0 186 123 310t323 124q166 0 322 -78l-55 -122q-119 61 -264 61q-128 0 -208.5 -85.5t-80.5 -209.5q0 -120 85 -195t208 -75 q147 0 268 55l55 -127q-139 -68 -323 -68q-124 0 -227 50t-164.5 144.5t-61.5 215.5z" />
<glyph unicode="&#xaa;" horiz-adv-x="870" d="M84 866q0 62 25.5 108.5t82.5 82.5t157 56t241 22v61q0 81 -36.5 119.5t-121.5 38.5q-117 0 -266 -78l-55 104q47 36 132.5 64.5t192.5 28.5q148 0 223.5 -68t75.5 -221v-328q0 -127 43 -211h-145q-30 74 -33 123q-41 -65 -108 -101t-154 -36q-116 0 -185 62t-69 173z M225 870q0 -59 37.5 -93t104.5 -34q102 0 162.5 56t60.5 151v101q-107 -7 -180 -23t-112.5 -40.5t-56 -52.5t-16.5 -65z" />
<glyph unicode="&#xab;" horiz-adv-x="1003" d="M88 510v137l215 240h174l-260 -309l260 -310h-174zM481 510v137l215 240h174l-260 -309l260 -310h-174z" />
<glyph unicode="&#xac;" d="M57 766v154h1053v-699h-166v545h-887z" />
<glyph unicode="&#xad;" horiz-adv-x="628" d="M94 494v157h441v-157h-441z" />
<glyph unicode="&#xae;" horiz-adv-x="1073" d="M45 999q0 192 139 330.5t338 138.5q202 0 343 -138.5t141 -330.5q0 -198 -140 -333.5t-344 -135.5q-201 0 -339 135.5t-138 333.5zM121 999q0 -166 116.5 -281.5t284.5 -115.5q172 0 291 115.5t119 281.5q0 163 -120 280.5t-290 117.5q-167 0 -284 -117.5t-117 -280.5z M330 776v473h264q72 0 120 -41t48 -104q0 -42 -29 -78.5t-74 -54.5l113 -195h-106l-105 187h-139v-187h-92zM422 1040h170q31 0 54.5 19.5t23.5 44.5q0 30 -22.5 48.5t-53.5 18.5h-172v-131z" />
<glyph unicode="&#xaf;" horiz-adv-x="839" d="M164 1286v135h512v-135h-512z" />
<glyph unicode="&#xb0;" horiz-adv-x="774" d="M88 1051q0 167 75.5 253.5t223.5 86.5q80 0 139 -26.5t93 -74t50.5 -106.5t16.5 -131q0 -171 -76.5 -265t-222.5 -94q-81 0 -141 30.5t-93.5 83t-49 113t-15.5 130.5zM223 1053q0 -244 164 -244q52 0 87 22t50.5 61.5t21 75.5t5.5 83q0 225 -164 225q-51 0 -85.5 -19.5 t-50.5 -54.5t-22 -70t-6 -79z" />
<glyph unicode="&#xb1;" d="M57 0v152h1053v-152h-1053zM57 688v156h445v420h166v-420h442v-156h-442v-422h-166v422h-445z" />
<glyph unicode="&#xb2;" horiz-adv-x="765" d="M90 1180q36 84 109.5 140t187.5 56q122 0 196 -68t74 -173q0 -65 -33.5 -122t-99.5 -120l-268 -262h406v-115h-564v121l303 303q58 58 87.5 101.5t29.5 86.5q0 54 -40 95t-105 41q-103 0 -172 -127z" />
<glyph unicode="&#xb3;" horiz-adv-x="745" d="M68 1214q39 67 111 114.5t177 47.5q108 0 184 -55.5t76 -151.5q0 -67 -34 -112t-84 -64v-8q63 -12 107 -61.5t44 -130.5q0 -141 -132.5 -221t-332.5 -80q-51 0 -78 6l-8 118q40 -4 88 -4q154 0 240 52.5t86 132.5q0 56 -36.5 83t-88.5 27q-33 0 -141 -22l-21 106l101 17 q61 10 108 48.5t47 96.5q0 49 -37 81t-98 32q-47 0 -82 -22t-92 -81z" />
<glyph unicode="&#xb4;" horiz-adv-x="839" d="M338 1231v55l240 244h172v-60l-332 -239h-80z" />
<glyph unicode="&#xb6;" horiz-adv-x="1470" d="M137 1053q0 175 109 293q95 100 268 100h748v-1897h-175v1754h-315v-1754h-174v1080h-84q-83 0 -137.5 20.5t-102.5 63.5q-61 58 -98.5 146t-38.5 194z" />
<glyph unicode="&#xb7;" horiz-adv-x="532" d="M135 440v262h262v-262h-262z" />
<glyph unicode="&#xb8;" horiz-adv-x="839" d="M229 -408l21 115q18 -13 59 -22t74 -9q88 0 88 74q0 24 -8.5 38t-32.5 38l-57 57q-19 19 -19 43v82h97l102 -112q59 -63 59 -152q0 -93 -61 -144t-168 -51q-105 0 -154 43z" />
<glyph unicode="&#xb9;" horiz-adv-x="514" d="M70 1186v121l161 57h115l-8 -90v-758h-137v701l4 24h-4z" />
<glyph unicode="&#xba;" horiz-adv-x="915" d="M92 1055q0 182 98.5 300t268.5 118q166 0 264 -114.5t100 -303.5q-2 -182 -98.5 -303t-265.5 -121q-168 0 -267.5 115.5t-99.5 308.5zM242 1055q0 -61 10.5 -112t33.5 -95t67 -69t104 -25q114 0 165.5 82.5t51.5 218.5q0 60 -10.5 110.5t-34.5 94t-68 68t-104 24.5 q-113 0 -164 -81.5t-51 -215.5z" />
<glyph unicode="&#xbb;" horiz-adv-x="1003" d="M133 268l260 310l-260 309h174l215 -240v-137l-215 -242h-174zM526 268l260 310l-260 309h174l215 -240v-137l-215 -242h-174z" />
<glyph unicode="&#xbc;" horiz-adv-x="1560" d="M70 1186v121l161 57h115l-8 -90v-758h-137v701l4 24h-4zM248 0l776 1364h135l-776 -1364h-135zM866 182v129l375 537h141v-557h103v-109h-103v-182h-137v182h-379zM971 291h274v280l10 111l-6 2z" />
<glyph unicode="&#xbd;" horiz-adv-x="1650" d="M70 1186v121l161 57h115l-8 -90v-758h-137v701l4 24h-4zM246 0l776 1364h135l-776 -1364h-135zM977 664q36 84 109.5 140t187.5 56q122 0 196 -68.5t74 -173.5q0 -65 -33 -121.5t-100 -119.5l-268 -262h405v-115h-563v121l303 303q58 58 87.5 101.5t29.5 86.5 q0 54 -40 95t-105 41q-104 0 -173 -127z" />
<glyph unicode="&#xbe;" horiz-adv-x="1792" d="M68 1214q39 67 111 114.5t177 47.5q108 0 184 -55.5t76 -151.5q0 -67 -34 -112t-84 -64v-8q63 -12 107 -61.5t44 -130.5q0 -141 -132.5 -221t-332.5 -80q-51 0 -78 6l-8 118q40 -4 88 -4q154 0 240 52.5t86 132.5q0 56 -36.5 83t-88.5 27q-33 0 -141 -22l-21 106l101 17 q61 10 108 48.5t47 96.5q0 49 -37 81t-98 32q-47 0 -82 -22t-92 -81zM477 0l776 1364h136l-777 -1364h-135zM1098 182v129l375 537h141v-557h102v-109h-102v-182h-137v182h-379zM1202 291h275v280l10 111l-6 2z" />
<glyph unicode="&#xbf;" horiz-adv-x="911" d="M82 293q0 73 27 136t64.5 108t109.5 114l29.5 29.5t29 29.5t23.5 26t23.5 28t18 26t17.5 30.5t11.5 30.5t10.5 36.5t4.5 38t2.5 45.5h151q0 -58 -6.5 -99.5t-16.5 -73t-37.5 -69.5t-53 -67t-80.5 -87q-96 -88 -134 -139.5t-38 -120.5q0 -52 19.5 -91t52 -59.5t67.5 -30 t72 -9.5q152 0 272 123l94 -86q-56 -77 -158.5 -127.5t-218.5 -50.5q-153 0 -254.5 82.5t-101.5 226.5zM410 1227v219h219v-219h-219z" />
<glyph unicode="&#xc0;" horiz-adv-x="1290" d="M74 0l477 1446h194l467 -1446h-184l-104 342h-576l-106 -342h-168zM311 1843v60h172l240 -244v-55h-80zM395 487h486l-203 646l-29 127h-20l-31 -127z" />
<glyph unicode="&#xc1;" horiz-adv-x="1290" d="M74 0l477 1446h194l467 -1446h-184l-104 342h-576l-106 -342h-168zM395 487h486l-203 646l-29 127h-20l-31 -127zM563 1604v55l240 244h172v-60l-332 -239h-80z" />
<glyph unicode="&#xc2;" horiz-adv-x="1290" d="M74 0l477 1446h194l467 -1446h-184l-104 342h-576l-106 -342h-168zM385 1604v47l193 252h135l192 -252v-47h-74l-180 172h-12l-182 -172h-72zM395 487h486l-203 646l-29 127h-20l-31 -127z" />
<glyph unicode="&#xc3;" horiz-adv-x="1290" d="M74 0l477 1446h194l467 -1446h-184l-104 342h-576l-106 -342h-168zM297 1712l68 68q52 52 89.5 71t75.5 19q41 0 75 -18.5t85 -69.5l25 -25q41 -41 67 -41q33 0 74 41l51 51l88 -63l-67 -68q-52 -52 -89.5 -71t-76.5 -19q-41 0 -75 18.5t-85 69.5l-24 25q-41 41 -68 41 q-33 0 -74 -41l-51 -51zM395 487h486l-203 646l-29 127h-20l-31 -127z" />
<glyph unicode="&#xc4;" horiz-adv-x="1290" d="M74 0l477 1446h194l467 -1446h-184l-104 342h-576l-106 -342h-168zM344 1645v174h176v-174h-176zM395 487h486l-203 646l-29 127h-20l-31 -127zM772 1645v174h176v-174h-176z" />
<glyph unicode="&#xc5;" horiz-adv-x="1290" d="M74 0l477 1446h194l467 -1446h-184l-104 342h-576l-106 -342h-168zM395 487h486l-203 646l-29 127h-20l-31 -127zM414 1743q0 93 67.5 158t163.5 65q97 0 164.5 -65.5t67.5 -157.5t-67.5 -156.5t-164.5 -64.5t-164 64.5t-67 156.5zM508 1743q0 -57 40 -97t97 -40t97 40 t40 97t-40 98t-97 41t-97 -41t-40 -98z" />
<glyph unicode="&#xc6;" horiz-adv-x="2009" d="M-37 0l864 1446h1022v-146h-768v-475h676v-145h-676v-535h789v-145h-963v340h-565l-195 -340h-184zM432 485h475v826h-20l-78 -174z" />
<glyph unicode="&#xc7;" horiz-adv-x="1343" d="M117 717q0 155 44.5 290.5t127.5 238.5t211 162.5t286 59.5q264 0 431 -106l-41 -158q-92 57 -182 88t-214 31t-218.5 -47.5t-151 -130.5t-85 -189t-28.5 -231q0 -89 15.5 -172t51.5 -162t90 -137t138 -93.5t188 -35.5q126 0 218.5 30.5t179.5 86.5l39 -156 q-167 -106 -443 -106q-4 0 -13 1t-13 1l77 -86q60 -64 60 -152q0 -93 -61.5 -144t-168.5 -51q-104 0 -153 43l20 115q18 -13 59 -22t74 -9q88 0 88 74q0 24 -8.5 38t-32.5 38l-57 57q-18 18 -18 43v68q-243 46 -376.5 240.5t-133.5 482.5z" />
<glyph unicode="&#xc8;" horiz-adv-x="1306" d="M205 0v1446h942v-146h-768v-475h676v-145h-676v-535h788v-145h-962zM352 1843v60h172l240 -244v-55h-80z" />
<glyph unicode="&#xc9;" horiz-adv-x="1306" d="M205 0v1446h942v-146h-768v-475h676v-145h-676v-535h788v-145h-962zM604 1604v55l240 244h172v-60l-332 -239h-80z" />
<glyph unicode="&#xca;" horiz-adv-x="1306" d="M205 0v1446h942v-146h-768v-475h676v-145h-676v-535h788v-145h-962zM426 1604v47l192 252h136l192 -252v-47h-74l-180 172h-12l-182 -172h-72z" />
<glyph unicode="&#xcb;" horiz-adv-x="1306" d="M205 0v1446h942v-146h-768v-475h676v-145h-676v-535h788v-145h-962zM385 1645v174h176v-174h-176zM813 1645v174h176v-174h-176z" />
<glyph unicode="&#xcc;" horiz-adv-x="583" d="M-33 1843v60h172l240 -244v-55h-80zM205 0v1446h174v-1446h-174z" />
<glyph unicode="&#xcd;" horiz-adv-x="583" d="M205 0v1446h174v-1446h-174zM205 1604v55l239 244h172v-60l-331 -239h-80z" />
<glyph unicode="&#xce;" horiz-adv-x="583" d="M31 1604v47l192 252h135l193 -252v-47h-74l-180 172h-12l-183 -172h-71zM205 0v1446h174v-1446h-174z" />
<glyph unicode="&#xcf;" horiz-adv-x="583" d="M-10 1645v174h176v-174h-176zM205 0v1446h174v-1446h-174zM418 1645v174h176v-174h-176z" />
<glyph unicode="&#xd0;" horiz-adv-x="1529" d="M59 692v133h187v621h442q154 0 280.5 -40.5t225 -124t153 -223t54.5 -325.5q0 -158 -36.5 -283t-100 -208.5t-154.5 -138.5t-195 -79t-227 -24h-442v692h-187zM420 145h287q108 0 195 31.5t145.5 85.5t97.5 129t56.5 160t17.5 182q0 87 -16.5 166.5t-55 153.5t-96 128 t-146 86.5t-198.5 32.5h-287v-475h348v-133h-348v-547z" />
<glyph unicode="&#xd1;" horiz-adv-x="1470" d="M205 0v1446h241l529 -995l127 -291h20l-22 325v961h166v-1446h-234l-536 997l-127 289h-21l23 -325v-961h-166zM385 1712l68 68q52 52 89.5 71t75.5 19q41 0 75 -18.5t85 -69.5l25 -25q41 -41 67 -41q33 0 74 41l51 51l88 -63l-67 -68q-52 -52 -89.5 -71t-76.5 -19 q-41 0 -75 18.5t-85 69.5l-24 25q-41 41 -68 41q-33 0 -74 -41l-51 -51z" />
<glyph unicode="&#xd2;" horiz-adv-x="1542" d="M117 725q0 181 50 324.5t139 234t207 137.5t257 47q140 0 258 -47t207.5 -137t139.5 -233.5t50 -325.5q0 -143 -33.5 -264t-93 -209t-141.5 -149.5t-180 -92t-207 -30.5q-144 0 -263 47.5t-206 139t-135.5 234t-48.5 324.5zM297 725q0 -123 28.5 -229t84.5 -190 t148.5 -132.5t211.5 -48.5q123 0 215 43.5t148.5 124t84 189t27.5 243.5q0 99 -17 186t-54.5 163.5t-92 131t-134 86t-177.5 31.5q-158 0 -266 -78t-157.5 -210t-49.5 -310zM434 1843v60h172l240 -244v-55h-80z" />
<glyph unicode="&#xd3;" horiz-adv-x="1542" d="M117 725q0 181 50 324.5t139 234t207 137.5t257 47q140 0 258 -47t207.5 -137t139.5 -233.5t50 -325.5q0 -143 -33.5 -264t-93 -209t-141.5 -149.5t-180 -92t-207 -30.5q-144 0 -263 47.5t-206 139t-135.5 234t-48.5 324.5zM297 725q0 -123 28.5 -229t84.5 -190 t148.5 -132.5t211.5 -48.5q123 0 215 43.5t148.5 124t84 189t27.5 243.5q0 99 -17 186t-54.5 163.5t-92 131t-134 86t-177.5 31.5q-158 0 -266 -78t-157.5 -210t-49.5 -310zM686 1604v55l240 244h172v-60l-332 -239h-80z" />
<glyph unicode="&#xd4;" horiz-adv-x="1542" d="M117 725q0 181 50 324.5t139 234t207 137.5t257 47q140 0 258 -47t207.5 -137t139.5 -233.5t50 -325.5q0 -143 -33.5 -264t-93 -209t-141.5 -149.5t-180 -92t-207 -30.5q-144 0 -263 47.5t-206 139t-135.5 234t-48.5 324.5zM297 725q0 -123 28.5 -229t84.5 -190 t148.5 -132.5t211.5 -48.5q123 0 215 43.5t148.5 124t84 189t27.5 243.5q0 99 -17 186t-54.5 163.5t-92 131t-134 86t-177.5 31.5q-158 0 -266 -78t-157.5 -210t-49.5 -310zM508 1604v47l192 252h136l192 -252v-47h-74l-180 172h-12l-182 -172h-72z" />
<glyph unicode="&#xd5;" horiz-adv-x="1542" d="M117 725q0 181 50 324.5t139 234t207 137.5t257 47q140 0 258 -47t207.5 -137t139.5 -233.5t50 -325.5q0 -143 -33.5 -264t-93 -209t-141.5 -149.5t-180 -92t-207 -30.5q-144 0 -263 47.5t-206 139t-135.5 234t-48.5 324.5zM297 725q0 -123 28.5 -229t84.5 -190 t148.5 -132.5t211.5 -48.5q123 0 215 43.5t148.5 124t84 189t27.5 243.5q0 99 -17 186t-54.5 163.5t-92 131t-134 86t-177.5 31.5q-158 0 -266 -78t-157.5 -210t-49.5 -310zM420 1712l67 68q52 52 89.5 71t76.5 19q41 0 75 -18.5t85 -69.5l25 -25q41 -41 67 -41q33 0 74 41 l51 51l88 -63l-67 -68q-52 -52 -89.5 -71t-76.5 -19q-41 0 -75 18.5t-85 69.5l-25 25q-41 41 -67 41q-33 0 -74 -41l-51 -51z" />
<glyph unicode="&#xd6;" horiz-adv-x="1542" d="M117 725q0 181 50 324.5t139 234t207 137.5t257 47q140 0 258 -47t207.5 -137t139.5 -233.5t50 -325.5q0 -143 -33.5 -264t-93 -209t-141.5 -149.5t-180 -92t-207 -30.5q-144 0 -263 47.5t-206 139t-135.5 234t-48.5 324.5zM297 725q0 -123 28.5 -229t84.5 -190 t148.5 -132.5t211.5 -48.5q123 0 215 43.5t148.5 124t84 189t27.5 243.5q0 99 -17 186t-54.5 163.5t-92 131t-134 86t-177.5 31.5q-158 0 -266 -78t-157.5 -210t-49.5 -310zM467 1645v174h176v-174h-176zM895 1645v174h176v-174h-176z" />
<glyph unicode="&#xd7;" d="M45 993l117 117l426 -424l420 420l110 -109l-420 -422l426 -425l-116 -119l-428 428l-422 -424l-111 110l422 422z" />
<glyph unicode="&#xd8;" horiz-adv-x="1542" d="M117 725q0 181 50 324.5t139 234t207 137.5t257 47q162 0 297 -63l88 176h123l-117 -233q125 -92 194.5 -249t69.5 -374q0 -143 -33.5 -264t-93 -209t-141.5 -149.5t-180 -92t-207 -30.5q-143 0 -264 47l-80 -164h-123l107 213q-139 89 -216 253t-77 396zM297 725 q0 -158 47 -289.5t139 -210.5l516 1041q-97 57 -229 57q-158 0 -266 -78t-157.5 -210t-49.5 -310zM575 164q86 -39 195 -39q123 0 215 43.5t148.5 124t84 189t27.5 243.5q0 146 -39.5 269t-118.5 204z" />
<glyph unicode="&#xd9;" horiz-adv-x="1400" d="M182 477v969h174v-948q0 -52 1.5 -84t8.5 -76t20 -71t38.5 -57t61.5 -46.5t90 -27.5t124 -11t123.5 11t90 27.5t61.5 46.5t38.5 57t20.5 70.5t8.5 76t1.5 84.5v948h175v-969q0 -57 -4.5 -103t-18 -99t-36 -94t-62 -80t-92.5 -64.5t-130.5 -41t-173.5 -15.5t-173.5 15.5 t-131 41t-93.5 64.5t-63 80t-36.5 94t-18 99.5t-4.5 102.5zM360 1843v60h172l240 -244v-55h-80z" />
<glyph unicode="&#xda;" horiz-adv-x="1400" d="M182 477v969h174v-948q0 -52 1.5 -84t8.5 -76t20 -71t38.5 -57t61.5 -46.5t90 -27.5t124 -11t123.5 11t90 27.5t61.5 46.5t38.5 57t20.5 70.5t8.5 76t1.5 84.5v948h175v-969q0 -57 -4.5 -103t-18 -99t-36 -94t-62 -80t-92.5 -64.5t-130.5 -41t-173.5 -15.5t-173.5 15.5 t-131 41t-93.5 64.5t-63 80t-36.5 94t-18 99.5t-4.5 102.5zM612 1604v55l240 244h172v-60l-332 -239h-80z" />
<glyph unicode="&#xdb;" horiz-adv-x="1400" d="M182 477v969h174v-948q0 -52 1.5 -84t8.5 -76t20 -71t38.5 -57t61.5 -46.5t90 -27.5t124 -11t123.5 11t90 27.5t61.5 46.5t38.5 57t20.5 70.5t8.5 76t1.5 84.5v948h175v-969q0 -57 -4.5 -103t-18 -99t-36 -94t-62 -80t-92.5 -64.5t-130.5 -41t-173.5 -15.5t-173.5 15.5 t-131 41t-93.5 64.5t-63 80t-36.5 94t-18 99.5t-4.5 102.5zM434 1604v47l193 252h135l192 -252v-47h-73l-181 172h-12l-182 -172h-72z" />
<glyph unicode="&#xdc;" horiz-adv-x="1400" d="M182 477v969h174v-948q0 -52 1.5 -84t8.5 -76t20 -71t38.5 -57t61.5 -46.5t90 -27.5t124 -11t123.5 11t90 27.5t61.5 46.5t38.5 57t20.5 70.5t8.5 76t1.5 84.5v948h175v-969q0 -57 -4.5 -103t-18 -99t-36 -94t-62 -80t-92.5 -64.5t-130.5 -41t-173.5 -15.5t-173.5 15.5 t-131 41t-93.5 64.5t-63 80t-36.5 94t-18 99.5t-4.5 102.5zM393 1645v174h176v-174h-176zM821 1645v174h176v-174h-176z" />
<glyph unicode="&#xdd;" horiz-adv-x="1277" d="M25 1446h213l411 -766l414 766h194l-532 -926v-520h-174v520zM557 1604v55l240 244h172v-60l-332 -239h-80z" />
<glyph unicode="&#xde;" horiz-adv-x="1318" d="M205 0v1446h174v-295h373q268 0 385 -127q102 -108 102 -293q0 -201 -117 -315q-59 -57 -144.5 -85t-225.5 -28h-373v-303h-174zM379 449h395q151 0 219 72.5t68 209.5q0 127 -69 201t-218 74h-395v-557z" />
<glyph unicode="&#xdf;" horiz-adv-x="1134" d="M174 0v1108q0 208 101 312t278 104q183 0 289 -100.5t106 -252.5q0 -166 -131 -297q-51 -48 -51 -63q0 -4 1.5 -8t5 -10t7.5 -11t11.5 -13t13 -14t16.5 -16.5t18 -18t21 -20.5t23 -22q85 -82 113 -118q85 -108 85 -251q0 -158 -94.5 -242.5t-236.5 -84.5q-58 0 -170 18 v133q9 -1 33.5 -5t41 -6.5t43 -4.5t50.5 -2q75 0 123.5 41.5t48.5 130.5q0 38 -8.5 73t-18.5 58t-31 50.5t-31.5 39t-36 36t-30.5 29.5q-66 66 -90 92t-43 61t-19 71q0 42 19.5 73t68.5 82q42 44 62 85.5t20 109.5q0 48 -11 87.5t-35.5 74t-70.5 54t-110 19.5 q-56 0 -95.5 -16t-63 -42t-37 -68.5t-17.5 -85t-4 -101.5v-1069h-164z" />
<glyph unicode="&#xe0;" horiz-adv-x="1081" d="M96 281q0 81 33 141.5t107.5 107t203.5 71.5t312 26v86q0 111 -49 163t-166 52q-145 0 -324 -80l-61 125q54 37 160 66.5t229 29.5q187 0 280.5 -87.5t93.5 -287.5v-420q0 -170 58 -274h-164q-39 88 -43 162q-115 -178 -342 -178q-149 0 -238.5 78.5t-89.5 218.5z M205 1470v60h172l239 -244v-55h-79zM264 295q0 -178 193 -178q132 0 213.5 75.5t81.5 204.5v125q-129 -7 -221.5 -24t-143 -37.5t-79.5 -51t-36.5 -55.5t-7.5 -59z" />
<glyph unicode="&#xe1;" horiz-adv-x="1081" d="M96 281q0 81 33 141.5t107.5 107t203.5 71.5t312 26v86q0 111 -49 163t-166 52q-145 0 -324 -80l-61 125q54 37 160 66.5t229 29.5q187 0 280.5 -87.5t93.5 -287.5v-420q0 -170 58 -274h-164q-39 88 -43 162q-115 -178 -342 -178q-149 0 -238.5 78.5t-89.5 218.5z M264 295q0 -178 193 -178q132 0 213.5 75.5t81.5 204.5v125q-129 -7 -221.5 -24t-143 -37.5t-79.5 -51t-36.5 -55.5t-7.5 -59zM457 1231v55l239 244h172v-60l-331 -239h-80z" />
<glyph unicode="&#xe2;" horiz-adv-x="1081" d="M96 281q0 81 33 141.5t107.5 107t203.5 71.5t312 26v86q0 111 -49 163t-166 52q-145 0 -324 -80l-61 125q54 37 160 66.5t229 29.5q187 0 280.5 -87.5t93.5 -287.5v-420q0 -170 58 -274h-164q-39 88 -43 162q-115 -178 -342 -178q-149 0 -238.5 78.5t-89.5 218.5z M264 295q0 -178 193 -178q132 0 213.5 75.5t81.5 204.5v125q-129 -7 -221.5 -24t-143 -37.5t-79.5 -51t-36.5 -55.5t-7.5 -59zM279 1231v47l192 252h135l193 -252v-47h-74l-180 172h-13l-182 -172h-71z" />
<glyph unicode="&#xe3;" horiz-adv-x="1081" d="M96 281q0 81 33 141.5t107.5 107t203.5 71.5t312 26v86q0 111 -49 163t-166 52q-145 0 -324 -80l-61 125q54 37 160 66.5t229 29.5q187 0 280.5 -87.5t93.5 -287.5v-420q0 -170 58 -274h-164q-39 88 -43 162q-115 -178 -342 -178q-149 0 -238.5 78.5t-89.5 218.5z M190 1339l68 68q52 52 89.5 71t76.5 19q41 0 75 -18.5t85 -69.5l24 -25q41 -41 68 -41q33 0 74 41l51 52l88 -64l-68 -67q-52 -52 -90 -71.5t-76 -19.5q-40 0 -73.5 18.5t-85.5 70.5l-25 24q-41 41 -68 41q-32 0 -73 -41l-51 -51zM264 295q0 -178 193 -178q132 0 213.5 75.5 t81.5 204.5v125q-129 -7 -221.5 -24t-143 -37.5t-79.5 -51t-36.5 -55.5t-7.5 -59z" />
<glyph unicode="&#xe4;" horiz-adv-x="1081" d="M96 281q0 81 33 141.5t107.5 107t203.5 71.5t312 26v86q0 111 -49 163t-166 52q-145 0 -324 -80l-61 125q54 37 160 66.5t229 29.5q187 0 280.5 -87.5t93.5 -287.5v-420q0 -170 58 -274h-164q-39 88 -43 162q-115 -178 -342 -178q-149 0 -238.5 78.5t-89.5 218.5z M238 1272v174h176v-174h-176zM264 295q0 -178 193 -178q132 0 213.5 75.5t81.5 204.5v125q-129 -7 -221.5 -24t-143 -37.5t-79.5 -51t-36.5 -55.5t-7.5 -59zM666 1272v174h176v-174h-176z" />
<glyph unicode="&#xe5;" horiz-adv-x="1081" d="M96 281q0 81 33 141.5t107.5 107t203.5 71.5t312 26v86q0 111 -49 163t-166 52q-145 0 -324 -80l-61 125q54 37 160 66.5t229 29.5q187 0 280.5 -87.5t93.5 -287.5v-420q0 -170 58 -274h-164q-39 88 -43 162q-115 -178 -342 -178q-149 0 -238.5 78.5t-89.5 218.5z M264 295q0 -178 193 -178q132 0 213.5 75.5t81.5 204.5v125q-129 -7 -221.5 -24t-143 -37.5t-79.5 -51t-36.5 -55.5t-7.5 -59zM307 1436q0 92 67.5 157.5t164.5 65.5q96 0 163.5 -65t67.5 -158q0 -92 -67 -157t-164 -65t-164.5 65t-67.5 157zM401 1436q0 -57 40.5 -97.5 t97.5 -40.5t97 40.5t40 97.5t-40 98t-97 41t-97.5 -41t-40.5 -98z" />
<glyph unicode="&#xe6;" horiz-adv-x="1751" d="M96 281q0 81 33 141.5t107.5 107t203.5 71.5t312 26v86q0 111 -49 163t-166 52q-145 0 -324 -80l-61 125q54 37 160 66.5t229 29.5q129 0 211 -44t122 -140q131 184 355 184q193 0 302 -130.5t109 -338.5q0 -34 -6 -104h-719q2 -74 19.5 -136t54 -117t103 -86.5 t157.5 -31.5q84 0 154 27.5t147 83.5l66 -130q-156 -122 -367 -122q-302 0 -426 221q-132 -221 -399 -221q-149 0 -238.5 78.5t-89.5 218.5zM264 295q0 -178 193 -178q132 0 213.5 75.5t81.5 204.5v125q-129 -7 -221.5 -24t-143 -37.5t-79.5 -51t-36.5 -55.5t-7.5 -59z M922 623h553q0 137 -67.5 224t-188.5 87q-116 0 -195.5 -82t-101.5 -229z" />
<glyph unicode="&#xe7;" horiz-adv-x="997" d="M109 516q0 250 124 401.5t353 151.5q174 0 303 -82l-45 -141q-120 82 -256 82q-155 0 -232 -110.5t-77 -297.5q0 -62 7.5 -114.5t29 -106t55.5 -90.5t90.5 -60.5t130.5 -23.5q136 0 252 82l45 -141q-129 -82 -307 -82h-21l80 -88q59 -63 59 -152q0 -93 -61 -144t-168 -51 q-105 0 -154 43l21 115q18 -13 59 -22t74 -9q88 0 88 74q0 24 -8.5 38t-32.5 38l-57 57q-19 19 -19 43v74q-165 40 -249 177t-84 339z" />
<glyph unicode="&#xe8;" horiz-adv-x="1105" d="M109 510q0 247 127.5 403t343.5 156q197 0 306 -130t109 -339q0 -34 -6 -104h-710q2 -74 17.5 -135.5t50.5 -117t100.5 -87t156.5 -31.5q84 0 154 27.5t147 83.5l66 -130q-156 -122 -367 -122q-125 0 -221 40t-155 111.5t-89 166t-30 208.5zM219 1470v60h172l240 -244 v-55h-80zM285 623h544q0 137 -67.5 224t-188.5 87q-116 0 -192 -82t-96 -229z" />
<glyph unicode="&#xe9;" horiz-adv-x="1105" d="M109 510q0 247 127.5 403t343.5 156q197 0 306 -130t109 -339q0 -34 -6 -104h-710q2 -74 17.5 -135.5t50.5 -117t100.5 -87t156.5 -31.5q84 0 154 27.5t147 83.5l66 -130q-156 -122 -367 -122q-125 0 -221 40t-155 111.5t-89 166t-30 208.5zM285 623h544q0 137 -67.5 224 t-188.5 87q-116 0 -192 -82t-96 -229zM471 1231v55l240 244h172v-60l-332 -239h-80z" />
<glyph unicode="&#xea;" horiz-adv-x="1105" d="M109 510q0 247 127.5 403t343.5 156q197 0 306 -130t109 -339q0 -34 -6 -104h-710q2 -74 17.5 -135.5t50.5 -117t100.5 -87t156.5 -31.5q84 0 154 27.5t147 83.5l66 -130q-156 -122 -367 -122q-125 0 -221 40t-155 111.5t-89 166t-30 208.5zM285 623h544q0 137 -67.5 224 t-188.5 87q-116 0 -192 -82t-96 -229zM293 1231v47l192 252h136l192 -252v-47h-74l-180 172h-12l-182 -172h-72z" />
<glyph unicode="&#xeb;" horiz-adv-x="1105" d="M109 510q0 247 127.5 403t343.5 156q197 0 306 -130t109 -339q0 -34 -6 -104h-710q2 -74 17.5 -135.5t50.5 -117t100.5 -87t156.5 -31.5q84 0 154 27.5t147 83.5l66 -130q-156 -122 -367 -122q-125 0 -221 40t-155 111.5t-89 166t-30 208.5zM252 1272v174h176v-174h-176z M285 623h544q0 137 -67.5 224t-188.5 87q-116 0 -192 -82t-96 -229zM680 1272v174h176v-174h-176z" />
<glyph unicode="&#xec;" horiz-adv-x="532" d="M-63 1470v60h172l239 -244v-55h-80zM184 0v1053h164v-1053h-164z" />
<glyph unicode="&#xed;" horiz-adv-x="532" d="M184 0v1053h164v-1053h-164zM184 1231v55l240 244h172v-60l-332 -239h-80z" />
<glyph unicode="&#xee;" horiz-adv-x="532" d="M6 1231v47l193 252h135l192 -252v-47h-73l-181 172h-12l-182 -172h-72zM184 0v1053h164v-1053h-164z" />
<glyph unicode="&#xef;" horiz-adv-x="532" d="M-35 1272v174h176v-174h-176zM184 0v1053h164v-1053h-164zM393 1272v174h176v-174h-176z" />
<glyph unicode="&#xf0;" horiz-adv-x="1142" d="M109 522q0 155 53 278t157.5 196t245.5 73q48 0 78.5 -8.5t69.5 -28.5q-38 58 -99 125t-118 117l-250 -96v108l162 64q-79 63 -144 102l139 72q83 -62 150 -117l235 90v-108l-149 -58q395 -375 395 -792q0 -158 -52.5 -282t-159 -198.5t-251.5 -74.5q-212 0 -337 149 t-125 389zM279 530q0 -82 15 -151t47 -128t91 -92.5t139 -33.5q78 0 136.5 31.5t93 88t51 127t16.5 154.5q0 82 -15.5 151t-49 127t-93 91t-139.5 33q-78 0 -136 -31t-91 -87t-49 -125.5t-16 -154.5z" />
<glyph unicode="&#xf1;" horiz-adv-x="1163" d="M164 1053h153l21 -185q55 112 132.5 156.5t182.5 44.5q155 0 252 -100q92 -98 92 -287v-682h-163v711q0 98 -54 155q-59 62 -172 62q-119 0 -189.5 -74.5t-70.5 -183.5v-670h-164v868zM236 1339l67 68q52 52 89.5 71t76.5 19q41 0 75 -18.5t85 -69.5l24 -25 q41 -41 68 -41q33 0 74 41l51 52l88 -64l-68 -67q-52 -52 -90 -71.5t-76 -19.5q-40 0 -73.5 18.5t-85.5 70.5l-25 24q-41 41 -67 41q-33 0 -74 -41l-51 -51z" />
<glyph unicode="&#xf2;" horiz-adv-x="1142" d="M109 528q0 152 53 273.5t160 194.5t251 73q212 0 336.5 -150t124.5 -391q0 -111 -31 -209.5t-88 -173t-145.5 -118t-196.5 -43.5q-215 0 -339.5 148.5t-124.5 395.5zM240 1470v60h172l239 -244v-55h-80zM279 528q0 -81 15 -149.5t47 -127.5t91 -92.5t139 -33.5 q78 0 136 31.5t91.5 88t49.5 127t16 156.5q0 81 -15 149t-47.5 126.5t-91.5 91.5t-139 33q-78 0 -136 -31t-91 -87t-49 -126t-16 -156z" />
<glyph unicode="&#xf3;" horiz-adv-x="1142" d="M109 528q0 152 53 273.5t160 194.5t251 73q212 0 336.5 -150t124.5 -391q0 -111 -31 -209.5t-88 -173t-145.5 -118t-196.5 -43.5q-215 0 -339.5 148.5t-124.5 395.5zM279 528q0 -81 15 -149.5t47 -127.5t91 -92.5t139 -33.5q78 0 136 31.5t91.5 88t49.5 127t16 156.5 q0 81 -15 149t-47.5 126.5t-91.5 91.5t-139 33q-78 0 -136 -31t-91 -87t-49 -126t-16 -156zM492 1231v55l239 244h172v-60l-332 -239h-79z" />
<glyph unicode="&#xf4;" horiz-adv-x="1142" d="M109 528q0 152 53 273.5t160 194.5t251 73q212 0 336.5 -150t124.5 -391q0 -111 -31 -209.5t-88 -173t-145.5 -118t-196.5 -43.5q-215 0 -339.5 148.5t-124.5 395.5zM279 528q0 -81 15 -149.5t47 -127.5t91 -92.5t139 -33.5q78 0 136 31.5t91.5 88t49.5 127t16 156.5 q0 81 -15 149t-47.5 126.5t-91.5 91.5t-139 33q-78 0 -136 -31t-91 -87t-49 -126t-16 -156zM313 1231v47l193 252h135l193 -252v-47h-74l-180 172h-13l-182 -172h-72z" />
<glyph unicode="&#xf5;" horiz-adv-x="1142" d="M109 528q0 152 53 273.5t160 194.5t251 73q212 0 336.5 -150t124.5 -391q0 -111 -31 -209.5t-88 -173t-145.5 -118t-196.5 -43.5q-215 0 -339.5 148.5t-124.5 395.5zM225 1339l68 68q52 52 89.5 71t76.5 19q40 0 73.5 -18t85.5 -70l25 -25q41 -41 68 -41q32 0 73 41 l52 52l88 -64l-68 -67q-52 -52 -90 -71.5t-76 -19.5q-40 0 -74 18.5t-86 70.5l-24 24q-41 41 -68 41q-32 0 -73 -41l-52 -51zM279 528q0 -81 15 -149.5t47 -127.5t91 -92.5t139 -33.5q78 0 136 31.5t91.5 88t49.5 127t16 156.5q0 81 -15 149t-47.5 126.5t-91.5 91.5t-139 33 q-78 0 -136 -31t-91 -87t-49 -126t-16 -156z" />
<glyph unicode="&#xf6;" horiz-adv-x="1142" d="M109 528q0 152 53 273.5t160 194.5t251 73q212 0 336.5 -150t124.5 -391q0 -111 -31 -209.5t-88 -173t-145.5 -118t-196.5 -43.5q-215 0 -339.5 148.5t-124.5 395.5zM272 1272v174h177v-174h-177zM279 528q0 -81 15 -149.5t47 -127.5t91 -92.5t139 -33.5q78 0 136 31.5 t91.5 88t49.5 127t16 156.5q0 81 -15 149t-47.5 126.5t-91.5 91.5t-139 33q-78 0 -136 -31t-91 -87t-49 -126t-16 -156zM700 1272v174h177v-174h-177z" />
<glyph unicode="&#xf7;" d="M106 494v153h955v-153h-955zM477 0v213h215v-213h-215zM477 926v215h215v-215h-215z" />
<glyph unicode="&#xf8;" horiz-adv-x="1142" d="M109 528q0 152 53 273.5t160 194.5t251 73q108 0 195 -41l72 143h123l-103 -202q84 -72 129 -186t45 -255q0 -111 -31 -209.5t-88 -173t-145.5 -118t-196.5 -43.5q-111 0 -190 36l-80 -157h-123l109 215q-180 145 -180 450zM279 528q0 -200 81 -307l342 676 q-64 31 -131 31q-78 0 -136 -31t-91 -87t-49 -126t-16 -156zM446 152q59 -27 125 -27q78 0 136 31.5t91.5 88t49.5 127t16 156.5q0 190 -76 295z" />
<glyph unicode="&#xf9;" horiz-adv-x="1163" d="M164 371v682h164v-711q0 -100 53 -156q58 -61 172 -61q119 0 189.5 74.5t70.5 183.5v670h164v-869l20 -184h-153l-21 184q-55 -112 -132.5 -156t-182.5 -44q-155 0 -252 100q-92 98 -92 287zM250 1470v60h172l240 -244v-55h-80z" />
<glyph unicode="&#xfa;" horiz-adv-x="1163" d="M164 371v682h164v-711q0 -100 53 -156q58 -61 172 -61q119 0 189.5 74.5t70.5 183.5v670h164v-869l20 -184h-153l-21 184q-55 -112 -132.5 -156t-182.5 -44q-155 0 -252 100q-92 98 -92 287zM502 1231v55l239 244h172v-60l-331 -239h-80z" />
<glyph unicode="&#xfb;" horiz-adv-x="1163" d="M164 371v682h164v-711q0 -100 53 -156q58 -61 172 -61q119 0 189.5 74.5t70.5 183.5v670h164v-869l20 -184h-153l-21 184q-55 -112 -132.5 -156t-182.5 -44q-155 0 -252 100q-92 98 -92 287zM324 1231v47l192 252h135l193 -252v-47h-74l-180 172h-12l-183 -172h-71z" />
<glyph unicode="&#xfc;" horiz-adv-x="1163" d="M164 371v682h164v-711q0 -100 53 -156q58 -61 172 -61q119 0 189.5 74.5t70.5 183.5v670h164v-869l20 -184h-153l-21 184q-55 -112 -132.5 -156t-182.5 -44q-155 0 -252 100q-92 98 -92 287zM283 1272v174h176v-174h-176zM711 1272v174h176v-174h-176z" />
<glyph unicode="&#xfd;" horiz-adv-x="964" d="M6 1053h184l275 -768l22 -92h11l24 92l248 768h182l-440 -1205q-18 -50 -36.5 -91t-44 -82t-53.5 -68.5t-64.5 -44.5t-77.5 -17q-72 0 -99 15l-14 127q109 0 153 24.5t74 108.5l60 164zM397 1231v55l240 244h172v-60l-332 -239h-80z" />
<glyph unicode="&#xfe;" horiz-adv-x="1175" d="M184 -451v1958h164v-604q60 88 127 127t168 39q108 0 191 -42.5t133 -117t75 -169t25 -205.5q0 -77 -11.5 -150t-41 -147.5t-74 -129.5t-117 -89.5t-164.5 -34.5q-217 0 -311 155v-590h-164zM348 377q0 -97 71 -174.5t187 -77.5q72 0 126 22.5t86.5 58.5t52.5 89t27 107 t7 120q0 406 -282 406q-70 0 -125 -23.5t-86.5 -61.5t-47.5 -81.5t-16 -87.5v-297z" />
<glyph unicode="&#xff;" horiz-adv-x="964" d="M6 1053h184l275 -768l22 -92h11l24 92l248 768h182l-440 -1205q-18 -50 -36.5 -91t-44 -82t-53.5 -68.5t-64.5 -44.5t-77.5 -17q-72 0 -99 15l-14 127q109 0 153 24.5t74 108.5l60 164zM178 1272v174h176v-174h-176zM606 1272v174h176v-174h-176z" />
<glyph unicode="&#x152;" horiz-adv-x="2340" d="M117 725q0 181 50 324.5t139 234t207 137.5t257 47q141 0 261 -58t208 -173v209h942v-146h-768v-475h676v-145h-676v-535h789v-145h-963v207q-88 -113 -208 -170t-261 -57q-138 0 -256 47.5t-207 139t-139.5 234.5t-50.5 324zM297 725q0 -98 16.5 -185t53 -164t90.5 -132 t134 -87t179 -32q235 0 355 162t120 438q0 99 -17 186t-54.5 163.5t-92 131t-134 86t-177.5 31.5q-158 0 -266 -78t-157.5 -210t-49.5 -310z" />
<glyph unicode="&#x153;" horiz-adv-x="1861" d="M109 528q0 152 53 273.5t160 194.5t251 73q125 0 222 -60.5t157 -170.5q61 110 159 170.5t224 60.5q197 0 306.5 -130t109.5 -339q0 -34 -6 -104h-719q2 -74 19.5 -136t54 -117t103 -86.5t157.5 -31.5q84 0 154 27.5t147 83.5l65 -130q-156 -122 -366 -122 q-289 0 -416 223q-61 -105 -155 -164t-216 -59q-215 0 -339.5 148.5t-124.5 395.5zM279 528q0 -81 15 -149.5t47 -127.5t91 -92.5t139 -33.5q78 0 136 31.5t91.5 88t49.5 127t16 156.5q0 81 -15 149t-47.5 126.5t-91.5 91.5t-139 33q-78 0 -136 -31t-91 -87t-49 -126 t-16 -156zM1032 623h553q0 137 -67.5 224t-188.5 87q-116 0 -195.5 -82t-101.5 -229z" />
<glyph unicode="&#x178;" horiz-adv-x="1277" d="M25 1446h213l411 -766l414 766h194l-532 -926v-520h-174v520zM338 1645v174h176v-174h-176zM766 1645v174h176v-174h-176z" />
<glyph unicode="&#x2c6;" horiz-adv-x="839" d="M160 1231v47l192 252h135l193 -252v-47h-74l-180 172h-12l-183 -172h-71z" />
<glyph unicode="&#x2dc;" horiz-adv-x="839" d="M72 1339l67 68q52 52 89.5 71t76.5 19q41 0 75 -18.5t85 -69.5l24 -25q41 -41 68 -41q33 0 74 41l51 52l88 -64l-68 -67q-53 -53 -90 -72t-75 -19q-40 0 -74 18.5t-86 70.5l-25 24q-41 41 -67 41q-33 0 -74 -41l-51 -51z" />
<glyph unicode="&#x2000;" horiz-adv-x="983" />
<glyph unicode="&#x2001;" horiz-adv-x="1966" />
<glyph unicode="&#x2002;" horiz-adv-x="983" />
<glyph unicode="&#x2003;" horiz-adv-x="1966" />
<glyph unicode="&#x2004;" horiz-adv-x="655" />
<glyph unicode="&#x2005;" horiz-adv-x="491" />
<glyph unicode="&#x2006;" horiz-adv-x="327" />
<glyph unicode="&#x2007;" horiz-adv-x="327" />
<glyph unicode="&#x2008;" horiz-adv-x="245" />
<glyph unicode="&#x2009;" horiz-adv-x="393" />
<glyph unicode="&#x200a;" horiz-adv-x="109" />
<glyph unicode="&#x2010;" horiz-adv-x="628" d="M94 494v157h441v-157h-441z" />
<glyph unicode="&#x2011;" horiz-adv-x="628" d="M94 494v157h441v-157h-441z" />
<glyph unicode="&#x2012;" horiz-adv-x="628" d="M94 494v157h441v-157h-441z" />
<glyph unicode="&#x2013;" d="M82 508v127h1003v-127h-1003z" />
<glyph unicode="&#x2014;" horiz-adv-x="2048" d="M82 508v127h1884v-127h-1884z" />
<glyph unicode="&#x2018;" horiz-adv-x="444" d="M49 954l199 492h147l-135 -492h-211z" />
<glyph unicode="&#x2019;" horiz-adv-x="444" d="M49 954l135 492h211l-198 -492h-148z" />
<glyph unicode="&#x201a;" horiz-adv-x="444" d="M49 -272l135 491h211l-198 -491h-148z" />
<glyph unicode="&#x201c;" horiz-adv-x="821" d="M49 954l199 492h147l-135 -492h-211zM426 954l199 492h147l-135 -492h-211z" />
<glyph unicode="&#x201d;" horiz-adv-x="821" d="M49 954l135 492h211l-198 -492h-148zM426 954l135 492h211l-199 -492h-147z" />
<glyph unicode="&#x201e;" horiz-adv-x="821" d="M49 -272l135 491h211l-198 -491h-148zM426 -272l135 491h211l-199 -491h-147z" />
<glyph unicode="&#x2022;" horiz-adv-x="911" d="M154 578q0 138 82.5 220.5t220.5 82.5t220.5 -82.5t82.5 -220.5t-82.5 -221t-220.5 -83t-220.5 83t-82.5 221z" />
<glyph unicode="&#x2026;" horiz-adv-x="2048" d="M295 0v219h219v-219h-219zM913 0v219h220v-219h-220zM1532 0v219h219v-219h-219z" />
<glyph unicode="&#x202f;" horiz-adv-x="393" />
<glyph unicode="&#x2039;" horiz-adv-x="610" d="M88 510v137l215 240h174l-260 -309l260 -310h-174z" />
<glyph unicode="&#x203a;" horiz-adv-x="610" d="M133 268l260 310l-260 309h174l215 -240v-137l-215 -242h-174z" />
<glyph unicode="&#x205f;" horiz-adv-x="491" />
<glyph unicode="&#x20ac;" d="M86 467v127h176q-2 25 -2 76q0 36 4 114h-178v127h195q42 220 163 347.5t322 127.5q77 0 163.5 -19t143.5 -48l-41 -135q-56 25 -130.5 41t-139.5 16q-128 0 -202.5 -89t-102.5 -241h458v-127h-473q-2 -29 -2 -88q0 -69 2 -102h473v-127h-456q27 -155 95.5 -248.5 t184.5 -93.5q160 0 295 55l39 -135q-59 -29 -155 -47t-181 -18q-196 0 -312.5 130t-150.5 357h-188z" />
<glyph unicode="&#x2122;" horiz-adv-x="1353" d="M72 1366v80h430v-80h-168v-506h-96v506h-166zM637 860v586h151l134 -373h10l133 373h149v-586h-90v453l2 57h-8l-16 -57l-123 -342h-107l-122 342l-17 57h-8l2 -57v-453h-90z" />
<glyph unicode="&#x25fc;" horiz-adv-x="1054" d="M0 0v1055h1055v-1055h-1055z" />
</font>
</defs>
</svg>
