<?xml version="1.0" standalone="no"?>
<!DOCTYPE svg PUBLIC "-//W3C//DTD SVG 1.1//EN" "http://www.w3.org/Graphics/SVG/1.1/DTD/svg11.dtd" >
<svg xmlns="http://www.w3.org/2000/svg">
<metadata></metadata>
<defs>
<font id="xfinity_sansthin" horiz-adv-x="1167" >
<font-face units-per-em="2048" ascent="1581" descent="-467" />
<missing-glyph horiz-adv-x="468" />
<glyph unicode="&#xfb01;" horiz-adv-x="940" d="M18 999v54h175v192q0 124 62.5 203.5t174.5 79.5q63 0 78 -12l-12 -54q-20 8 -60 8q-87 0 -131.5 -60t-44.5 -163v-194h246v-54h-246v-999h-67v999h-175zM680 1321v186h80v-186h-80zM686 0v1053h68v-1053h-68z" />
<glyph unicode="&#xfb02;" horiz-adv-x="940" d="M18 999v54h175v192q0 124 62.5 203.5t174.5 79.5q63 0 78 -12l-12 -54q-20 8 -60 8q-87 0 -131.5 -60t-44.5 -163v-194h246v-54h-246v-999h-67v999h-175zM686 0v1507h68v-1507h-68z" />
<glyph unicode="&#xfb03;" horiz-adv-x="1441" d="M18 999v54h175v192q0 124 62.5 203.5t174.5 79.5q63 0 78 -12l-12 -54q-20 8 -60 8q-87 0 -131.5 -60t-44.5 -163v-194h434v192q0 124 63.5 203.5t176.5 79.5q61 0 76 -12l-11 -54q-20 8 -59 8q-87 0 -131.5 -60t-44.5 -163v-194h246v-54h-246v-999h-70v999h-434v-999 h-67v999h-175zM1184 1321v186h80v-186h-80zM1190 0v1053h67v-1053h-67z" />
<glyph unicode="&#xfb04;" horiz-adv-x="1441" d="M18 999v54h175v192q0 124 62.5 203.5t174.5 79.5q63 0 78 -12l-12 -54q-20 8 -60 8q-87 0 -131.5 -60t-44.5 -163v-194h434v192q0 124 63.5 203.5t176.5 79.5q61 0 76 -12l-11 -54q-20 8 -59 8q-87 0 -131.5 -60t-44.5 -163v-194h246v-54h-246v-999h-70v999h-434v-999 h-67v999h-175zM1190 0v1507h67v-1507h-67z" />
<glyph horiz-adv-x="0" />
<glyph horiz-adv-x="682" />
<glyph unicode=" "  horiz-adv-x="468" />
<glyph unicode="&#x09;" horiz-adv-x="468" />
<glyph unicode="&#xa0;" horiz-adv-x="468" />
<glyph unicode="!" horiz-adv-x="509" d="M233 0v219h89v-219h-89zM233 1257v189h89v-189l-19 -782h-49z" />
<glyph unicode="&#x22;" horiz-adv-x="587" d="M115 954l18 326l10 166h88l-22 -166l-43 -326h-51zM408 954l18 326l10 166h88l-22 -166l-41 -326h-53z" />
<glyph unicode="#" horiz-adv-x="1511" d="M102 348v58h306l108 589h-309v58h319l72 393h59l-71 -393h495l72 393h59l-71 -393h295v-58h-306l-104 -589h305v-58h-315l-78 -430h-64l78 430h-491l-78 -430h-64l78 430h-295zM471 406h492l108 589h-496z" />
<glyph unicode="$" d="M180 152l23 61q135 -72 325 -72q178 0 282.5 71.5t104.5 195.5q0 49 -20 89t-50 66.5t-80 50.5t-94.5 38.5t-109.5 31.5q-49 13 -78 21t-73 24t-70.5 31t-57.5 39.5t-48 51.5t-29 65t-12 83q0 141 98.5 221t263.5 91v217h59v-215q130 -2 304 -58l-19 -61q-156 59 -301 59 q-149 0 -240.5 -62.5t-91.5 -184.5q0 -31 5.5 -57t20.5 -47.5t28.5 -37.5t41 -31t46 -24.5t56 -21.5t58.5 -18.5t66 -18.5q77 -20 128.5 -37.5t107 -45t88.5 -60t54 -81t21 -108.5q0 -135 -97.5 -223.5t-275.5 -108.5v-285h-59v281h-33q-205 0 -342 70z" />
<glyph unicode="%" horiz-adv-x="1742" d="M96 997q0 379 320 379q85 0 148 -29.5t99.5 -82.5t54 -119t17.5 -146q0 -190 -81.5 -293.5t-237.5 -103.5q-87 0 -151.5 33.5t-100 91t-52 125t-16.5 145.5zM156 997q0 -51 7 -97t25 -92t46.5 -79.5t75 -54.5t106.5 -21q133 0 196.5 93t63.5 253q0 67 -13 122.5t-42 103 t-81 74t-124 26.5q-260 0 -260 -328zM457 0l776 1364h59l-776 -1364h-59zM1006 383q0 379 319 379q85 0 148 -29.5t100 -82.5t54.5 -119t17.5 -146q0 -190 -81.5 -293.5t-238.5 -103.5q-70 0 -125.5 22.5t-91.5 59.5t-59.5 89t-33 107t-9.5 117zM1065 383q0 -51 7 -97 t25 -92t46.5 -79.5t75 -54.5t106.5 -21q132 0 196 93.5t64 252.5q0 67 -13 122.5t-42 103t-81 74t-124 26.5q-260 0 -260 -328z" />
<glyph unicode="&#x26;" horiz-adv-x="1398" d="M74 367q0 88 26.5 157t81 120.5t117.5 88.5t156 76q-82 91 -124 166t-42 170q0 141 94 232t244 91q127 0 216 -76.5t89 -209.5q0 -74 -27 -133t-83 -105t-115.5 -78.5t-151.5 -70.5q196 -231 422 -484q129 158 278 445l70 -15q-170 -315 -305 -477q90 -96 157.5 -146.5 t141.5 -76.5l-10 -59q-85 21 -158.5 73t-173.5 158q-212 -236 -483 -236q-194 0 -307 103.5t-113 286.5zM147 373q0 -160 95 -249t258 -89q237 0 436 221q-209 228 -447 510q-170 -68 -256 -158t-86 -235zM360 1149q0 -77 40.5 -149t119.5 -166q73 32 116.5 53.5t92.5 53 t75 63t43 75.5t17 97q0 112 -69 175.5t-168 63.5q-118 0 -192.5 -75.5t-74.5 -190.5z" />
<glyph unicode="'" horiz-adv-x="290" d="M115 954l18 326l10 166h88l-22 -166l-43 -326h-51z" />
<glyph unicode="(" horiz-adv-x="634" d="M125 608q0 127 27 252t71 226t101 191t114.5 153.5t114.5 105.5h53v-18q-73 -55 -143.5 -145t-131.5 -206t-98.5 -263.5t-37.5 -295.5t37.5 -296t98.5 -265t132 -208t143 -146v-19h-53q-57 42 -114.5 106t-114.5 154.5t-101 193t-71 228t-27 252.5z" />
<glyph unicode=")" horiz-adv-x="634" d="M29 -307q72 55 143 146t132 208t98.5 265t37.5 296t-37.5 295.5t-98.5 263.5t-131.5 206t-143.5 145v18h53q72 -54 144 -142t137.5 -205.5t106 -270.5t40.5 -310q0 -127 -27 -252.5t-71 -228t-101 -193t-114.5 -154.5t-114.5 -106h-53v19z" />
<glyph unicode="*" horiz-adv-x="815" d="M104 1169l23 68l43 -14l219 -99l8 9l-20 235v47h67v-47l-20 -235l6 -9l217 97l45 14l23 -68l-45 -16l-234 -51l-2 -8l158 -179l29 -36l-58 -43l-28 38l-121 205h-11l-122 -205l-27 -38l-57 43l28 38l158 179l-2 8l-234 51z" />
<glyph unicode="+" d="M14 541v61h535v539h69v-539h535v-61h-535v-541h-69v541h-535z" />
<glyph unicode="," horiz-adv-x="380" d="M35 -274l209 493h90l-240 -493h-59z" />
<glyph unicode="-" horiz-adv-x="628" d="M94 541v65h441v-65h-441z" />
<glyph unicode="." horiz-adv-x="313" d="M113 0v219h88v-219h-88z" />
<glyph unicode="/" horiz-adv-x="813" d="M0 -236l745 1682h68l-750 -1682h-63z" />
<glyph unicode="0" d="M102 700q0 684 482 684q104 0 187 -37.5t137.5 -100.5t90 -151.5t51 -186t15.5 -208.5q0 -716 -481 -716q-107 0 -191.5 40.5t-138 107.5t-88.5 161t-49.5 194t-14.5 213zM174 700q0 -81 7.5 -155t25 -150.5t49 -138t75.5 -110.5t108.5 -76t144.5 -27q209 0 309 170.5 t100 486.5q0 96 -11.5 181t-40.5 168.5t-74 143t-117.5 96t-165.5 36.5q-209 0 -309.5 -162t-100.5 -463z" />
<glyph unicode="1" d="M246 1149v68l375 147h57l-8 -119v-1245h-72v1253l6 41h-6z" />
<glyph unicode="2" d="M141 1090q53 126 166 210t279 84q126 0 218 -53t135.5 -136t43.5 -183q0 -61 -16.5 -116t-50 -105t-62 -83.5t-72.5 -78.5l-555 -568h781v-61h-863v63l586 605q83 85 131.5 165.5t48.5 178.5q0 130 -88.5 221.5t-242.5 91.5q-132 0 -227 -70.5t-152 -187.5z" />
<glyph unicode="3" d="M137 1167q44 46 83 79.5t93 67.5t119.5 52t138.5 18q166 0 276.5 -86.5t110.5 -228.5q0 -118 -78.5 -199.5t-199.5 -109.5v-8q140 -9 234 -97t94 -233q0 -123 -61.5 -216t-170 -147.5t-243.5 -81t-295 -26.5q-58 0 -74 8l-4 59q40 -4 73 -4q153 0 278.5 24t222 72.5 t149.5 128t53 185.5q0 92 -49.5 158.5t-121 96.5t-153.5 30q-44 0 -233 -33l-12 59l155 23q170 25 267.5 106.5t97.5 198.5q0 116 -90.5 189t-229.5 73q-111 0 -195.5 -47t-183.5 -143z" />
<glyph unicode="4" d="M84 332v74l666 958h69v-973h314v-59h-314v-332h-71v332h-664zM143 391h605v793l6 78l-6 2z" />
<glyph unicode="5" d="M190 18q40 -4 74 -4q160 0 282.5 24.5t217 79t144.5 148t50 223.5q0 72 -17.5 133t-54.5 111.5t-101.5 79.5t-151.5 29q-92 0 -177 -39t-218 -146l-48 21l48 686h751v-61h-690l-41 -574q133 104 213.5 139t167.5 35q101 0 177.5 -31.5t122 -88t68.5 -129.5t23 -160 q0 -543 -762 -543q-57 0 -73 8z" />
<glyph unicode="6" d="M127 539q0 221 55 404.5t164 301.5q169 172 455 172q93 0 112 -8l2 -59q-46 4 -114 4q-257 0 -404 -156q-163 -178 -194 -539q73 92 185.5 151.5t234.5 59.5q193 0 311.5 -116.5t118.5 -315.5q0 -216 -125.5 -335t-327.5 -119q-198 0 -321 114q-75 71 -113.5 176 t-38.5 265zM199 502q0 -240 123 -355q107 -104 284 -104q169 0 272 103t103 290q0 172 -100.5 272.5t-270.5 100.5q-121 0 -230.5 -62.5t-174.5 -152.5q-6 -44 -6 -92z" />
<glyph unicode="7" d="M154 1303v61h903v-57q-34 -36 -61.5 -66.5t-87.5 -107.5t-108.5 -151t-110.5 -188t-108 -229t-86 -264t-59 -301h-78q23 192 84 382.5t130.5 329.5t154 268.5t141.5 200t107 122.5h-821z" />
<glyph unicode="8" d="M111 377q0 75 28.5 137.5t75.5 103t103 65t116 32.5v8q-46 8 -91 29t-90 56.5t-73 95t-28 132.5q0 140 118 244t314 104t314 -104t118 -244q0 -59 -19 -109.5t-49 -84.5t-69 -59.5t-74.5 -39t-71.5 -20.5v-8q60 -8 116 -32.5t103.5 -65t76 -103t28.5 -137.5 q0 -100 -37.5 -176.5t-103.5 -123t-150 -70t-182 -23.5t-182 23.5t-150 70t-103.5 123t-37.5 176.5zM184 377q0 -162 108.5 -248t291.5 -86t291 86t108 248q0 137 -98 224t-301 87t-301.5 -87t-98.5 -224zM223 1032q0 -123 92.5 -203.5t268.5 -80.5t269 80.5t93 203.5 q0 119 -98 206t-264 87q-165 0 -263 -87t-98 -206z" />
<glyph unicode="9" d="M113 930q0 216 125 335t327 119q199 0 322 -114q75 -70 113 -175.5t38 -265.5q0 -221 -55 -404.5t-164 -301.5q-169 -172 -454 -172q-94 0 -113 8l-2 59q46 -4 115 -4q256 0 403 156q164 179 195 539q-73 -92 -185.5 -151.5t-234.5 -59.5q-193 0 -311.5 116.5 t-118.5 315.5zM184 932q0 -172 100.5 -272.5t270.5 -100.5q121 0 231 62.5t175 152.5q6 43 6 92q0 240 -123 355q-107 104 -285 104q-169 0 -272 -103t-103 -290z" />
<glyph unicode=":" horiz-adv-x="436" d="M174 0v219h88v-219h-88zM174 834v219h88v-219h-88z" />
<glyph unicode=";" horiz-adv-x="466" d="M51 -274l209 493h90l-239 -493h-60zM174 834v219h88v-219h-88z" />
<glyph unicode="&#x3c;" d="M57 545v51l1053 494v-74l-825 -379l-146 -62v-12l146 -57l825 -377v-74z" />
<glyph unicode="=" d="M57 311v62h1053v-62h-1053zM57 766v63h1053v-63h-1053z" />
<glyph unicode="&#x3e;" d="M57 55v74l826 377l145 57v12l-145 62l-826 379v74l1053 -494v-51z" />
<glyph unicode="?" horiz-adv-x="897" d="M104 1284q56 77 159 127.5t220 50.5q144 0 242 -82.5t98 -226.5q0 -69 -27 -128.5t-69 -106t-129 -125.5q-8 -8 -28.5 -26.5t-31 -28.5t-28.5 -29.5t-28 -34.5t-22.5 -38t-19 -45.5t-11.5 -52.5t-5 -63h-64q0 63 10 109t37.5 88t55 71.5t84.5 81.5q110 103 140 140 q71 86 71 182q0 122 -81.5 189t-197.5 67q-97 0 -185.5 -42t-146.5 -112zM352 0v219h88v-219h-88z" />
<glyph unicode="@" horiz-adv-x="2091" d="M143 496q0 173 54 327t150 270.5t223.5 201.5t279 129t311.5 44q178 0 330 -56t256.5 -152.5t163.5 -230t59 -286.5q0 -118 -34.5 -226t-91 -187t-128 -138t-147.5 -88.5t-146 -29.5q-90 0 -144 49.5t-50 146.5q-149 -194 -344 -194q-124 0 -209.5 90t-85.5 262 q0 126 50.5 243t128 196t169.5 126t176 47q104 0 175 -66t87 -159l62 195h63l-211 -686q-8 -24 -8 -52q0 -68 42 -107.5t114 -39.5q60 0 125.5 27.5t127.5 82t112 127t80 172t30 207.5q0 142 -54.5 266t-152 214t-239 142t-308.5 52q-150 0 -291.5 -41.5t-260.5 -122 t-209 -190.5t-140.5 -255t-50.5 -308q0 -137 36 -258t98.5 -211.5t144.5 -162t177 -116.5t193 -68.5t195 -23.5q150 0 324 44t267 97l21 -43q-95 -57 -275 -104t-339 -47q-124 0 -250 34.5t-244.5 108t-209.5 176.5t-146.5 251.5t-55.5 320.5zM657 434q0 -148 68.5 -224.5 t171.5 -76.5q173 0 334 199l123 407q-14 101 -79 172.5t-163 71.5q-71 0 -150.5 -42t-147.5 -112t-112.5 -175.5t-44.5 -219.5z" />
<glyph unicode="A" horiz-adv-x="1236" d="M74 0l501 1446h89l495 -1446h-76l-129 381h-680l-131 -381h-69zM295 440h641l-297 867l-18 65h-9l-18 -65z" />
<glyph unicode="B" horiz-adv-x="1337" d="M205 0v1446h481q88 0 168 -19t150 -58t111.5 -109.5t41.5 -163.5q0 -119 -69.5 -206t-186.5 -112v-8q63 -9 120.5 -35.5t105 -69.5t76 -108.5t28.5 -144.5q0 -97 -27.5 -170t-74.5 -118.5t-117 -74t-147 -39t-173 -10.5h-487zM276 59h435q444 0 444 355q0 139 -108.5 230 t-278.5 91h-492v-676zM276 795h472q150 0 240.5 83t90.5 212q0 142 -113.5 219t-287.5 77h-402v-591z" />
<glyph unicode="C" horiz-adv-x="1343" d="M117 717q0 155 44.5 290.5t127.5 238.5t211 162.5t286 59.5q264 0 431 -106l-17 -66q-178 113 -416 113q-115 0 -212 -35.5t-166.5 -99t-118.5 -150t-73 -189t-24 -216.5q0 -143 37 -265t108 -215.5t184.5 -146.5t256.5 -53q255 0 424 111l17 -64q-167 -106 -443 -106 q-207 0 -357 95t-225 260t-75 382z" />
<glyph unicode="D" horiz-adv-x="1488" d="M205 0v1446h442q154 0 280.5 -40.5t225 -124t153 -223t54.5 -325.5q0 -158 -36.5 -283t-100 -208.5t-154.5 -138.5t-195 -79t-227 -24h-442zM276 59h377q294 0 463.5 170.5t169.5 503.5q0 315 -170 484t-463 169h-377v-1327z" />
<glyph unicode="E" horiz-adv-x="1306" d="M205 0v1446h942v-60h-871v-602h779v-59h-779v-666h891v-59h-962z" />
<glyph unicode="F" horiz-adv-x="1175" d="M205 0v1446h893v-60h-822v-602h732v-59h-732v-725h-71z" />
<glyph unicode="G" horiz-adv-x="1447" d="M117 719q0 158 48.5 295t137.5 238t223.5 158.5t298.5 57.5q122 0 240 -23t190 -63l-16 -65q-77 42 -189.5 67t-226.5 25q-196 0 -341 -91t-218.5 -245.5t-73.5 -351.5q0 -109 23 -208.5t72.5 -186.5t121 -150.5t175 -100t227.5 -36.5q107 0 221 22t189 64v512h-433v57 h498v-604q-72 -49 -213 -79.5t-264 -30.5q-139 0 -254 40t-194.5 109t-135 163.5t-81 201.5t-25.5 225z" />
<glyph unicode="H" horiz-adv-x="1445" d="M205 0v1446h71v-684h893v684h72v-1446h-72v705h-893v-705h-71z" />
<glyph unicode="I" horiz-adv-x="481" d="M205 0v1446h71v-1446h-71z" />
<glyph unicode="J" horiz-adv-x="972" d="M76 84l16 68q61 -49 145.5 -81t163.5 -32q158 0 237 90.5t79 237.5v1079h69v-1090q0 -170 -98 -273t-285 -103q-88 0 -176.5 29t-150.5 75z" />
<glyph unicode="K" horiz-adv-x="1331" d="M205 0v1446h71v-911l883 911h90l-547 -561l627 -885h-90l-586 834l-377 -383v-451h-71z" />
<glyph unicode="L" horiz-adv-x="1060" d="M205 0v1446h71v-1387h768v-59h-839z" />
<glyph unicode="M" horiz-adv-x="1740" d="M205 0v1446h123l540 -1350h9l538 1350h119v-1446h-70v1264l2 116h-6l-553 -1380h-76l-550 1380h-9l2 -116v-1264h-69z" />
<glyph unicode="N" horiz-adv-x="1470" d="M205 0v1446h102l830 -1262l59 -116h8l-8 127v1251h70v-1446h-101l-831 1262l-60 114h-8l8 -127v-1249h-69z" />
<glyph unicode="O" horiz-adv-x="1542" d="M117 725q0 181 50 324.5t139 234t207 137.5t257 47q140 0 258 -47t207.5 -137t139.5 -233.5t50 -325.5q0 -181 -50.5 -324t-139.5 -234.5t-207.5 -139t-257.5 -47.5q-140 0 -258.5 47.5t-207 139t-138 234.5t-49.5 324zM190 725q0 -317 159.5 -501.5t420.5 -184.5 q266 0 424 180t158 506q0 320 -158.5 502t-423.5 182q-263 0 -421.5 -180.5t-158.5 -503.5z" />
<glyph unicode="P" horiz-adv-x="1277" d="M205 0v1446h506q268 0 385 -127q102 -108 102 -293q0 -201 -117 -315q-59 -57 -144.5 -85t-225.5 -28h-435v-598h-71zM276 657h441q214 0 311 97q96 92 96 272q0 159 -84 252q-100 108 -323 108h-441v-729z" />
<glyph unicode="Q" horiz-adv-x="1542" d="M117 725q0 181 50 324.5t139 234t207 137.5t257 47q140 0 258 -47t207.5 -137t139.5 -233.5t50 -325.5q0 -213 -71 -372t-197 -253l176 -209l-69 -18l-162 193q-145 -86 -332 -86q-144 0 -263 47.5t-206 139t-135.5 234t-48.5 324.5zM190 725q0 -317 159.5 -501.5 t420.5 -184.5q166 0 295 72l-334 401l51 37l336 -402q111 85 172.5 232.5t61.5 345.5q0 320 -158.5 502t-423.5 182q-263 0 -421.5 -180.5t-158.5 -503.5z" />
<glyph unicode="R" horiz-adv-x="1361" d="M205 0v1446h532q260 0 379 -125q103 -109 103 -289q0 -176 -92.5 -278.5t-262.5 -124.5l414 -629h-82l-408 618h-512v-618h-71zM276 678h490q176 0 278.5 85.5t102.5 268.5q0 173 -105 263.5t-303 90.5h-463v-708z" />
<glyph unicode="S" horiz-adv-x="1107" d="M94 49l17 62q86 -39 197.5 -60.5t215.5 -21.5q202 0 322.5 85t120.5 238q0 55 -16 101t-47.5 81.5t-68.5 63.5t-88 50.5t-97.5 38t-104.5 30.5q-160 43 -231 78q-199 99 -199 305q0 179 127 273.5t342 94.5q177 0 372 -67l-16 -62q-189 70 -360 70q-178 0 -286 -75.5 t-108 -223.5q0 -54 15 -98.5t45 -76.5t62 -55t80 -41.5t83.5 -29.5t85.5 -24l12 -3q85 -23 148 -46t126.5 -58.5t104 -77t65.5 -102t25 -133.5q0 -181 -138 -288.5t-382 -107.5q-254 0 -424 80z" />
<glyph unicode="T" horiz-adv-x="1140" d="M47 1386v60h1047v-60h-486v-1386h-76v1386h-485z" />
<glyph unicode="U" horiz-adv-x="1400" d="M182 477v969h72v-963q0 -52 3.5 -93t14.5 -89t30.5 -84t53 -71t80 -57.5t114 -36t152.5 -13.5q84 0 151.5 13.5t113.5 36t79.5 57.5t52.5 71t30 84t14.5 89t3.5 93v963h72v-969q0 -57 -4.5 -103t-18 -99t-36 -94t-62 -80t-92.5 -64.5t-130.5 -41t-173.5 -15.5 t-173.5 15.5t-131 41t-93.5 64.5t-63 80t-36.5 94t-18 99.5t-4.5 102.5z" />
<glyph unicode="V" horiz-adv-x="1183" d="M51 1446h80l442 -1303l17 -67h10l16 67l443 1303h78l-500 -1446h-88z" />
<glyph unicode="W" horiz-adv-x="1871" d="M90 1446h76l311 -1307l17 -71h12l14 71l359 1307h102l358 -1307l17 -71h12l14 71l326 1307h76l-371 -1446h-104l-359 1305l-16 73h-12l-15 -73l-356 -1305h-105z" />
<glyph unicode="X" horiz-adv-x="1165" d="M55 0l484 756l-473 690h88l428 -643l436 643h80l-473 -690l485 -756h-92l-438 707l-443 -707h-82z" />
<glyph unicode="Y" horiz-adv-x="1116" d="M25 1446h86l450 -842l451 842h80l-498 -909v-537h-72v537z" />
<glyph unicode="Z" horiz-adv-x="1259" d="M96 0v53l967 1333h-893v60h983v-53l-967 -1334h977v-59h-1067z" />
<glyph unicode="[" horiz-adv-x="647" d="M156 -326v1862h366v-53h-301v-1755h301v-54h-366z" />
<glyph unicode="\" horiz-adv-x="813" d="M0 1446h68l745 -1682h-63z" />
<glyph unicode="]" horiz-adv-x="647" d="M125 -272h303v1755h-303v53h367v-1862h-367v54z" />
<glyph unicode="^" d="M20 414l504 950h51l506 -950h-82l-372 727l-70 143h-12l-72 -143l-371 -727h-82z" />
<glyph unicode="_" d="M-10 -360h1188v-54h-1188v54z" />
<glyph unicode="`" horiz-adv-x="839" d="M182 1499v31h70l246 -275v-24h-33z" />
<glyph unicode="a" horiz-adv-x="1064" d="M96 279q0 81 34.5 140.5t117 106.5t232.5 71.5t368 25.5v77q0 165 -73 237.5t-226 72.5q-103 0 -197 -26t-157 -62l-27 53q53 36 158 65t225 29q183 0 273.5 -87t90.5 -288v-694h-63v211q-77 -117 -188.5 -172t-231.5 -55q-156 0 -246 79t-90 216zM166 283 q0 -115 72 -179.5t202 -64.5q74 0 142.5 22t115 54.5t81.5 71t52 72t17 56.5v263q-163 -4 -283 -20t-196 -41t-122 -62t-63.5 -78t-17.5 -94z" />
<glyph unicode="b" horiz-adv-x="1150" d="M184 0v1507h68v-637q129 199 360 199q90 0 162.5 -27.5t122 -76t82.5 -116t48 -145.5t15 -167q0 -79 -11.5 -151.5t-41.5 -148t-77.5 -130t-125.5 -89t-178 -34.5q-113 0 -207.5 45t-150.5 145v-174h-66zM252 276q0 -16 11 -42.5t38 -60t64.5 -62t97.5 -48.5t131 -20 q89 0 157 30.5t108.5 78t66.5 115t35.5 132.5t9.5 138q0 78 -11 145t-37.5 128.5t-67.5 105t-105 69t-146 25.5t-153.5 -30t-112 -71t-63.5 -78t-23 -57v-498z" />
<glyph unicode="c" horiz-adv-x="983" d="M109 516q0 250 124 401.5t353 151.5q174 0 303 -82l-19 -59q-122 82 -284 82q-197 0 -302.5 -135t-105.5 -357q0 -101 23 -185t70.5 -150t127.5 -103t187 -37q163 0 284 82l19 -59q-129 -82 -307 -82q-119 0 -210.5 39.5t-148 111.5t-85.5 168t-29 213z" />
<glyph unicode="d" horiz-adv-x="1146" d="M106 518q0 84 13 159.5t44.5 148.5t80.5 125.5t126 85t175 32.5q114 0 205.5 -47t144.5 -145v630h68v-1507h-66v180q-137 -196 -367 -196q-114 0 -199 44.5t-132.5 121.5t-70 169t-22.5 199zM176 518q0 -78 11 -145.5t38 -129.5t68.5 -105.5t105.5 -69t146 -25.5 q81 0 152 30t111.5 71t63.5 78t23 57v495q0 16 -11 42.5t-38 60.5t-64.5 63.5t-97.5 49.5t-131 20q-89 0 -157 -30t-108.5 -77.5t-66.5 -114.5t-35.5 -132t-9.5 -138z" />
<glyph unicode="e" horiz-adv-x="1114" d="M109 510q0 250 129 404.5t350 154.5q202 0 313 -125t111 -330q0 -39 -6 -84h-828v-16q0 -101 24.5 -184t75 -148.5t136 -102t198.5 -36.5q184 0 342 119l27 -56q-153 -122 -369 -122q-127 0 -224.5 39t-158 110.5t-90.5 166t-30 210.5zM182 586h760q1 19 1 38 q-1 160 -85 268q-94 120 -272 120q-170 0 -278.5 -115.5t-125.5 -310.5z" />
<glyph unicode="f" horiz-adv-x="501" d="M18 999v54h175v192q0 124 62.5 203.5t174.5 79.5q63 0 78 -12l-12 -54q-20 8 -60 8q-87 0 -131.5 -60t-44.5 -163v-194h246v-54h-246v-999h-67v999h-175z" />
<glyph unicode="g" horiz-adv-x="1146" d="M106 518q0 83 12.5 158t44.5 148.5t80.5 126.5t126.5 85.5t177 32.5q242 0 350 -195v179h66v-1078q0 -205 -100.5 -323.5t-307.5 -118.5q-201 0 -358 74l18 57q147 -72 340 -72q169 0 254.5 99t85.5 291v196q-63 -94 -156.5 -144t-208.5 -50q-92 0 -165 29.5t-120.5 79.5 t-79.5 119.5t-45.5 145t-13.5 160.5zM176 516q0 -78 11 -145t38 -128.5t68.5 -105t105.5 -69t146 -25.5q81 0 152 30t111.5 71t63.5 78t23 57v495q0 17 -11 43.5t-38 60.5t-64.5 63t-97.5 49t-131 20q-89 0 -157 -30t-108.5 -78t-66.5 -115t-35.5 -132t-9.5 -139z" />
<glyph unicode="h" horiz-adv-x="1132" d="M184 0v1507h68v-635q54 94 151.5 145.5t208.5 51.5q175 0 277 -102q94 -94 94 -291v-676h-68v684q0 163 -77 240q-86 86 -236 86q-80 0 -150 -27.5t-111.5 -66.5t-65 -76t-23.5 -60v-780h-68z" />
<glyph unicode="i" horiz-adv-x="436" d="M178 1321v186h80v-186h-80zM184 0v1053h68v-1053h-68z" />
<glyph unicode="j" horiz-adv-x="436" d="M-39 -449l4 56q16 -4 43 -4q87 0 131.5 60t44.5 163v1227h68v-1225q0 -125 -62.5 -204t-175.5 -79q-35 0 -53 6zM178 1321v186h80v-186h-80z" />
<glyph unicode="k" horiz-adv-x="1009" d="M184 0v1507h68v-1065l629 611h86l-428 -410l452 -643h-86q-62 92 -209 299.5t-207 296.5l-237 -225v-371h-68z" />
<glyph unicode="l" horiz-adv-x="436" d="M184 0v1507h68v-1507h-68z" />
<glyph unicode="m" horiz-adv-x="1742" d="M184 0v1053h66v-183q52 97 141 148t191 51q264 0 323 -229q44 112 135 170.5t201 58.5q167 0 252 -94q84 -87 84 -258v-717h-70v727q0 133 -68 208t-210 75q-123 0 -218.5 -86t-95.5 -207v-717h-69v731q0 130 -68 204.5t-209 74.5q-58 0 -111 -18.5t-89.5 -46t-63.5 -60 t-40 -60t-13 -45.5v-780h-68z" />
<glyph unicode="n" horiz-adv-x="1132" d="M184 0v1053h66v-185q52 95 151.5 148t210.5 53q175 0 277 -102q94 -94 94 -291v-676h-68v684q0 163 -77 240q-86 86 -236 86q-80 0 -150 -27.5t-111.5 -66.5t-65 -76t-23.5 -60v-780h-68z" />
<glyph unicode="o" horiz-adv-x="1142" d="M109 528q0 152 53 273.5t160 194.5t251 73q212 0 336.5 -150t124.5 -391q0 -111 -31 -209.5t-88 -173t-145.5 -118t-196.5 -43.5q-215 0 -339.5 148.5t-124.5 395.5zM178 528q0 -216 103.5 -350.5t291.5 -134.5q95 0 170.5 38.5t123.5 105.5t73 154t25 187 q0 138 -44 245.5t-134 172t-214 64.5q-126 0 -217 -65.5t-134.5 -172.5t-43.5 -244z" />
<glyph unicode="p" horiz-adv-x="1150" d="M184 -451v1504h66v-185q135 201 362 201q90 0 162.5 -27.5t122 -75.5t82.5 -115.5t48 -145t15 -166.5q0 -79 -11.5 -152.5t-42 -148.5t-78 -130t-125 -89.5t-177.5 -34.5q-115 0 -209 44.5t-147 143.5v-623h-68zM252 276q0 -22 20 -58t57.5 -76.5t107 -69.5t153.5 -29 q90 0 159 30t110 77t67 113.5t35.5 132t9.5 139.5q0 78 -11 145.5t-37.5 129.5t-67.5 105.5t-105 69t-146 25.5t-153.5 -30t-112 -71t-63.5 -78t-23 -57v-498z" />
<glyph unicode="q" horiz-adv-x="1146" d="M106 518q0 83 13 158.5t44.5 148.5t80.5 126t126 85.5t175 32.5q244 0 352 -195v179h66v-1504h-68v629q-63 -94 -156.5 -144t-208.5 -50q-92 0 -165 29.5t-120.5 79.5t-79.5 119.5t-45.5 145t-13.5 160.5zM176 516q0 -79 11 -146.5t38.5 -128.5t69 -104t106.5 -68.5 t148 -25.5q79 0 148 29.5t110 70.5t64.5 78t23.5 58v495q0 17 -11 43.5t-38 60.5t-64.5 63t-97.5 49t-131 20q-89 0 -157 -30t-108.5 -78t-66.5 -115t-35.5 -132t-9.5 -139z" />
<glyph unicode="r" horiz-adv-x="626" d="M184 0v1053h66v-183q42 89 117.5 142t162.5 53q38 0 86 -10l-10 -72q-37 12 -80 12q-62 0 -117 -25.5t-87.5 -62t-51 -71.5t-18.5 -58v-778h-68z" />
<glyph unicode="s" horiz-adv-x="888" d="M100 33l15 57q38 -23 127.5 -44t175.5 -21q88 0 157.5 24t113.5 78t44 133q0 33 -8.5 61t-21.5 49.5t-38 40.5t-47.5 32.5t-62 28.5t-69.5 25t-80 25q-45 14 -81 28.5t-75.5 39.5t-66 54t-43.5 71.5t-17 93.5q0 125 92 192.5t250 67.5q73 0 150 -14.5t130 -40.5l-16 -60 q-127 60 -268 60q-124 0 -198.5 -51t-74.5 -148q0 -95 67 -148t204 -94q142 -43 194 -70q136 -72 147 -209q1 -13 1 -26q0 -99 -54 -168.5t-138 -100t-189 -30.5q-93 0 -190 22t-130 42z" />
<glyph unicode="t" horiz-adv-x="571" d="M33 999v54h172v280h67v-280h238v-54h-238v-755q0 -51 5 -82.5t20.5 -60.5t48.5 -42.5t86 -13.5h82l-4 -51q-20 -10 -86 -10q-68 0 -113 18.5t-67.5 55.5t-30.5 78t-8 100v763h-172z" />
<glyph unicode="u" horiz-adv-x="1132" d="M164 377v676h67v-684q0 -162 78 -240q86 -86 236 -86q80 0 150 27.5t111.5 66t65 75.5t23.5 60v781h68v-1053h-66v184q-52 -95 -151 -147.5t-211 -52.5q-175 0 -277 102q-94 94 -94 291z" />
<glyph unicode="v" horiz-adv-x="864" d="M14 1053h76l330 -922l14 -55h6l17 55l323 922h74l-377 -1053h-82z" />
<glyph unicode="w" horiz-adv-x="1394" d="M39 1053h74l249 -901l13 -62h8l16 62l252 901h86l254 -901l15 -62h8l14 62l262 901h74l-311 -1053h-82l-258 913l-15 60h-8l-14 -60l-258 -913h-82z" />
<glyph unicode="x" horiz-adv-x="866" d="M35 0l356 545l-342 508h82l301 -461l305 461h78l-342 -504l354 -549h-86l-311 500l-315 -500h-80z" />
<glyph unicode="y" horiz-adv-x="878" d="M6 1053h76l344 -926l14 -55h6l17 55l328 926h75l-440 -1205q-25 -68 -47.5 -114.5t-55.5 -93.5t-77 -71t-99 -24q-29 0 -41 9l-6 49q57 0 99 17t71.5 53t48 73.5t39.5 97.5l52 140z" />
<glyph unicode="z" horiz-adv-x="907" d="M76 0v47l665 952h-616v54h698v-45l-665 -955h682v-53h-764z" />
<glyph unicode="{" horiz-adv-x="753" d="M78 588v61h112q67 0 114.5 57.5t47.5 133.5q0 17 -8 53l-57 276q-11 44 -11 84q0 113 78 191q43 43 101.5 67.5t109.5 24.5h88v-53h-73q-47 0 -95 -20t-82 -56q-59 -59 -59 -158q0 -46 12 -96l54 -250q6 -54 6 -67q0 -61 -46 -127t-118 -86v-7q76 -27 120 -91t44 -124 q0 -19 -6 -61l-54 -281q-12 -58 -12 -100q0 -98 53 -160q32 -35 82 -53t101 -18h73v-54h-88q-55 0 -115.5 23t-99.5 65q-74 77 -74 193q0 23 11 86l57 301q6 30 6 49q2 76 -45 136.5t-115 60.5h-112z" />
<glyph unicode="|" horiz-adv-x="790" d="M356 -348v2068h78v-2068h-78z" />
<glyph unicode="}" horiz-adv-x="753" d="M100 -272h74q51 0 100.5 18t81.5 53q54 63 54 160q0 37 -13 100l-55 281q-4 28 -4 61q0 60 44 124t120 91v7q-73 20 -118.5 86t-45.5 127q0 40 6 67l53 250q13 54 13 96q0 98 -60 158q-35 36 -82 56t-94 20h-74v53h88q51 0 109.5 -24.5t101.5 -67.5q78 -78 78 -191 q0 -16 -2 -33t-5 -32t-3 -19l-57 -276q-9 -41 -9 -53q0 -76 47.5 -133.5t114.5 -57.5h113v-61h-113q-68 0 -115 -60.5t-45 -136.5q0 -14 7 -49l57 -301q10 -58 10 -86q0 -116 -74 -193q-41 -42 -100.5 -65t-114.5 -23h-88v54z" />
<glyph unicode="~" d="M88 530q67 83 150.5 131t158.5 48q48 0 89.5 -21.5t72.5 -52.5l61.5 -61.5t70.5 -52t87 -21.5q118 0 238 143l49 -37q-69 -81 -145 -125.5t-150 -44.5q-53 0 -97 21.5t-74.5 52t-59.5 60.5t-67 51.5t-83 21.5q-59 0 -127.5 -39.5t-124.5 -107.5z" />
<glyph unicode="&#xa1;" horiz-adv-x="509" d="M184 834v219h88v-219h-88zM186 -205l19 783h49l20 -783v-188h-88v188z" />
<glyph unicode="&#xa2;" d="M170 516q0 250 124 401.5t353 151.5h17l49 297l59 -4l-49 -297q123 -14 227 -78l-22 -55q-118 78 -281 78q-197 0 -303 -135t-106 -357q0 -101 23 -185t71 -150t128 -103t187 -37q163 0 281 78l22 -55q-129 -82 -307 -82q-38 0 -100 8l-54 -324l-59 4l57 332 q-158 44 -237.5 179.5t-79.5 332.5z" />
<glyph unicode="&#xa3;" d="M59 14v58q47 -19 105 -19q129 0 197.5 90t68.5 224q0 52 -16.5 110.5t-32.5 95t-49 101.5h-273v55h244q-43 87 -66.5 156.5t-23.5 144.5q0 158 111 256t311 98q105 0 205 -29t161 -75l-26 -53q-68 46 -159 72t-183 26q-165 0 -256.5 -80.5t-91.5 -214.5q0 -74 25 -144 t71 -157h412v-55h-383q42 -85 65 -155t23 -146q0 -110 -52 -203q155 -121 353 -121q116 0 239 84v-65q-33 -33 -100.5 -57.5t-138.5 -24.5q-203 0 -385 135q-88 -129 -250 -129q-74 0 -105 22z" />
<glyph unicode="&#xa4;" d="M96 -115l176 297q-65 62 -95 153.5t-30 229.5v119q0 284 138 389l-181 291h66l162 -258q103 61 252 61q160 0 258 -67l166 264h67l-186 -297q70 -64 100.5 -155t30.5 -228v-119q0 -134 -28.5 -223t-90.5 -149l182 -308h-69l-160 271q-110 -74 -270 -74q-161 0 -265 70 l-155 -267h-68zM215 578q0 -246 94 -340q94 -97 275 -97q170 0 268 95q51 51 74.5 132.5t25.5 209.5v94q3 243 -96 342q-94 94 -272 94q-182 0 -275 -96q-94 -94 -94 -340v-94z" />
<glyph unicode="&#xa5;" d="M82 504v53h457l-129 264h-328v53h301l-242 490h84l367 -764l366 764h78l-243 -490h292v-53h-319l-131 -264h450v-53h-460v-504h-72v504h-471z" />
<glyph unicode="&#xa6;" horiz-adv-x="790" d="M356 -195v725h78v-725h-78zM356 840v727h78v-727h-78z" />
<glyph unicode="&#xa7;" horiz-adv-x="1290" d="M113 571q0 129 90.5 210t234.5 106q-162 79 -162 241q0 115 95.5 185.5t263.5 70.5q79 0 172 -15t156 -40l-15 -57q-153 57 -315 57q-137 0 -214 -53.5t-77 -145.5q0 -102 78.5 -157.5t230.5 -85.5q79 -14 144 -31t136 -48.5t119.5 -71.5t80.5 -101.5t32 -136.5 q0 -130 -91.5 -210.5t-235.5 -105.5q163 -80 163 -241q0 -115 -96.5 -185.5t-269.5 -70.5q-78 0 -170.5 15t-157.5 40l17 57q150 -57 315 -57q140 0 218.5 53.5t78.5 145.5q0 102 -78.5 157.5t-230.5 85.5q-79 14 -144 31t-136 48.5t-119.5 71.5t-80.5 101.5t-32 136.5z M180 573q0 -64 28 -115t71 -84.5t112 -62t132 -44.5t151 -34q49 -10 63 -14q150 3 254.5 75.5t104.5 201.5q0 46 -14.5 85t-38.5 69t-62 56t-77.5 44t-93.5 34.5t-101 28t-109 23.5q-39 7 -63 14q-96 -3 -175 -33.5t-130.5 -94t-51.5 -149.5z" />
<glyph unicode="&#xa8;" horiz-adv-x="839" d="M168 1272v174h74v-174h-74zM598 1272v174h74v-174h-74z" />
<glyph unicode="&#xa9;" horiz-adv-x="1839" d="M66 684q0 224 112.5 414t304.5 299.5t418 109.5q170 0 325.5 -65t268 -174.5t179.5 -262.5t67 -321q0 -135 -42.5 -261.5t-120.5 -228t-181.5 -178t-231.5 -118t-264 -41.5q-169 0 -323.5 65t-266.5 175.5t-178.5 264t-66.5 322.5zM127 684q0 -210 104.5 -388.5 t282.5 -282t387 -103.5q158 0 302 61t248 165t166 247t62 301q0 157 -62 300t-166 246.5t-248 164.5t-302 61q-209 0 -387 -103.5t-282.5 -281.5t-104.5 -387zM483 686q0 188 124.5 311t330.5 123q146 0 276 -57l-22 -53q-125 53 -254 53q-174 0 -280.5 -107t-106.5 -270 q0 -159 113.5 -255.5t279.5 -96.5q132 0 250 41l23 -53q-116 -46 -273 -46q-127 0 -231 49t-167 143.5t-63 217.5z" />
<glyph unicode="&#xaa;" horiz-adv-x="843" d="M82 862q0 62 26.5 107t89.5 81.5t177 55.5t280 20v62q0 124 -54 178.5t-169 54.5q-153 0 -276 -71l-25 43q43 31 124.5 55.5t178.5 24.5q142 0 213.5 -67t71.5 -222v-539h-60v160q-58 -89 -142 -130.5t-177 -41.5q-121 0 -189.5 61.5t-68.5 167.5zM143 862 q0 -85 55 -132.5t152 -47.5q69 0 130 24.5t97.5 59t57 68.5t20.5 57v196q-196 -6 -311.5 -35t-158 -74.5t-42.5 -115.5z" />
<glyph unicode="&#xab;" horiz-adv-x="1003" d="M59 555v47l279 285h76l-301 -307l301 -312h-74zM453 555v47l278 285h76l-301 -307l301 -312h-74z" />
<glyph unicode="&#xac;" d="M57 815v62h1010v-613h-68v551h-942z" />
<glyph unicode="&#xad;" horiz-adv-x="628" d="M94 541v65h441v-65h-441z" />
<glyph unicode="&#xae;" horiz-adv-x="1073" d="M45 1001q0 126 62.5 233t172.5 170.5t242 63.5t244 -63.5t176 -171t64 -232.5q0 -130 -64.5 -238.5t-175.5 -170.5t-244 -62q-202 0 -339.5 136.5t-137.5 334.5zM86 1001q0 -182 126 -308t310 -126q185 0 314 126.5t129 307.5q0 176 -130 303.5t-313 127.5 q-120 0 -221 -59t-158 -158t-57 -214zM338 776v473h254q65 0 110.5 -37.5t45.5 -93.5q0 -50 -33 -86t-88 -45l125 -211h-54l-120 207h-195v-207h-45zM383 1024h211q49 0 78.5 27t29.5 67q0 39 -32 65.5t-78 26.5h-209v-186z" />
<glyph unicode="&#xaf;" horiz-adv-x="839" d="M164 1286v57h512v-57h-512z" />
<glyph unicode="&#xb0;" horiz-adv-x="774" d="M88 1051q0 167 75.5 253.5t223.5 86.5q80 0 139 -26.5t93 -74t50.5 -106.5t16.5 -131q0 -171 -76.5 -265t-222.5 -94q-81 0 -141 30.5t-93.5 83t-49 113t-15.5 130.5zM147 1051q0 -57 11.5 -107.5t37.5 -97t75 -74t116 -27.5q122 0 181 83t59 225q0 58 -12 107 t-38.5 90.5t-75 65t-114.5 23.5q-122 0 -181 -75.5t-59 -212.5z" />
<glyph unicode="&#xb1;" d="M57 0v61h1053v-61h-1053zM57 692v64h492v424h69v-424h492v-64h-492v-426h-69v426h-492z" />
<glyph unicode="&#xb2;" horiz-adv-x="765" d="M104 1190q35 79 106 131.5t179 52.5q117 0 184.5 -66.5t67.5 -164.5q0 -70 -34 -126.5t-93 -115.5l-336 -334h477v-51h-549v53l355 357q37 37 59 63.5t42 68.5t20 83q0 76 -53.5 130t-145.5 54q-154 0 -229 -156z" />
<glyph unicode="&#xb3;" horiz-adv-x="745" d="M90 1239q121 139 279 139q105 0 175 -53t70 -143q0 -73 -47.5 -123t-120.5 -68v-4q85 -6 143 -60t58 -143q0 -76 -38.5 -133.5t-106.5 -91.5t-154 -50.5t-188 -16.5q-31 0 -47 4l-4 51q12 -2 51 -2q195 0 311.5 59.5t116.5 181.5q0 79 -58.5 122.5t-136.5 43.5 q-27 0 -145 -20l-10 47l98 14q102 13 160.5 63t58.5 122q0 67 -53 109t-137 42q-66 0 -119 -28.5t-111 -86.5z" />
<glyph unicode="&#xb4;" horiz-adv-x="839" d="M340 1231v24l246 275h71v-31l-284 -268h-33z" />
<glyph unicode="&#xb6;" horiz-adv-x="1265" d="M137 1053q0 175 109 293q95 100 268 100h543v-1897h-72v1837h-315v-1837h-72v1080h-84q-83 0 -137.5 20.5t-102.5 63.5q-61 58 -98.5 146t-38.5 194z" />
<glyph unicode="&#xb7;" horiz-adv-x="370" d="M135 440v262h101v-262h-101z" />
<glyph unicode="&#xb8;" horiz-adv-x="839" d="M238 -406l18 48q42 -39 139 -39q67 0 108.5 28.5t41.5 77.5q0 23 -13 46.5t-24 34.5t-31 28l-61 51q-29 25 -29 55v78h57v-59q0 -20 21 -37l65 -58q22 -22 33.5 -35t27 -44t15.5 -62q0 -70 -57.5 -114t-155.5 -44q-105 0 -155 45z" />
<glyph unicode="&#xb9;" horiz-adv-x="477" d="M70 1241v55l172 68h49l-6 -76v-772h-60v766l4 27h-4z" />
<glyph unicode="&#xba;" horiz-adv-x="899" d="M90 1055q0 181 97.5 299.5t265.5 118.5q164 0 260 -115.5t96 -302.5q0 -116 -40.5 -210.5t-122.5 -153t-193 -58.5q-168 0 -265.5 115t-97.5 307zM156 1055q0 -165 77 -268t218 -103t217.5 105.5t76.5 265.5q0 161 -76.5 263.5t-217.5 102.5q-142 0 -218.5 -103.5 t-76.5 -262.5z" />
<glyph unicode="&#xbb;" horiz-adv-x="1003" d="M197 268l301 312l-301 307h75l279 -285v-47l-281 -287h-73zM590 268l301 312l-301 307h76l278 -285v-47l-280 -287h-74z" />
<glyph unicode="&#xbc;" horiz-adv-x="1445" d="M70 1241v55l172 68h49l-6 -76v-772h-60v766l4 27h-4zM209 0l776 1364h59l-776 -1364h-59zM750 205v57l409 586h62v-596h200v-47h-200v-205h-62v205h-409zM799 252h360v465l6 53l-4 2z" />
<glyph unicode="&#xbd;" horiz-adv-x="1538" d="M70 1241v55l172 68h49l-6 -76v-772h-60v766l4 27h-4zM209 0l776 1364h59l-776 -1364h-59zM877 674q35 79 106 131.5t178 52.5q118 0 186 -66.5t68 -164.5q0 -71 -34.5 -128t-94.5 -114l-336 -334h480v-51h-549v53l354 357q56 56 87.5 106t31.5 109q0 77 -52.5 130.5 t-146.5 53.5q-152 0 -227 -156z" />
<glyph unicode="&#xbe;" horiz-adv-x="1714" d="M90 1239q121 139 279 139q105 0 175 -53t70 -143q0 -73 -47.5 -123t-120.5 -68v-4q85 -6 143 -60t58 -143q0 -76 -38.5 -133.5t-106.5 -91.5t-154 -50.5t-188 -16.5q-31 0 -47 4l-4 51q12 -2 51 -2q195 0 311.5 59.5t116.5 181.5q0 79 -58.5 122.5t-136.5 43.5 q-27 0 -145 -20l-10 47l98 14q102 13 160.5 63t58.5 122q0 67 -53 109t-137 42q-66 0 -119 -28.5t-111 -86.5zM477 0l776 1364h60l-776 -1364h-60zM1020 205v57l407 586h62v-596h201v-47h-201v-205h-59v205h-410zM1067 252h363v465l4 53l-4 2z" />
<glyph unicode="&#xbf;" horiz-adv-x="897" d="M96 -100q0 53 12.5 95.5t45 87t68 81t100.5 96.5q8 8 28.5 26.5t31 28.5t28.5 29.5t28 34.5t22.5 38t19 45.5t11.5 52.5t5 63h63q0 -64 -10 -110t-37 -88t-55 -71.5t-84 -81.5q-110 -103 -139 -138q-71 -89 -72 -183q0 -122 81.5 -189t196.5 -67q97 0 185.5 41.5 t146.5 111.5l43 -34q-57 -77 -159.5 -128t-219.5 -51q-144 0 -242 83t-98 227zM479 834v219h88v-219h-88z" />
<glyph unicode="&#xc0;" horiz-adv-x="1236" d="M74 0l501 1446h89l495 -1446h-76l-129 381h-680l-131 -381h-69zM295 440h641l-297 867l-18 65h-9l-18 -65zM379 1872v31h70l245 -275v-24h-32z" />
<glyph unicode="&#xc1;" horiz-adv-x="1236" d="M74 0l501 1446h89l495 -1446h-76l-129 381h-680l-131 -381h-69zM295 440h641l-297 867l-18 65h-9l-18 -65zM537 1604v24l245 275h72v-31l-285 -268h-32z" />
<glyph unicode="&#xc2;" horiz-adv-x="1236" d="M74 0l501 1446h89l495 -1446h-76l-129 381h-680l-131 -381h-69zM295 440h641l-297 867l-18 65h-9l-18 -65zM358 1604v22l228 277h57l231 -277v-22h-38l-218 241h-6l-217 -241h-37z" />
<glyph unicode="&#xc3;" horiz-adv-x="1236" d="M74 0l501 1446h89l495 -1446h-76l-129 381h-680l-131 -381h-69zM293 1665l78 78q65 63 125 63q32 0 57 -12t57 -43l70 -63q44 -35 72 -35q41 0 98 57l57 55l41 -26l-78 -78q-64 -64 -125 -64q-55 0 -114 56l-68 63q-44 35 -74 35q-41 0 -98 -57l-57 -56zM295 440h641 l-297 867l-18 65h-9l-18 -65z" />
<glyph unicode="&#xc4;" horiz-adv-x="1236" d="M74 0l501 1446h89l495 -1446h-76l-129 381h-680l-131 -381h-69zM295 440h641l-297 867l-18 65h-9l-18 -65zM365 1645v174h73v-174h-73zM795 1645v174h73v-174h-73z" />
<glyph unicode="&#xc5;" horiz-adv-x="1236" d="M74 0l501 1446h89l495 -1446h-76l-129 381h-680l-131 -381h-69zM295 440h641l-297 867l-18 65h-9l-18 -65zM401 1741q0 87 63.5 148t153.5 61t153 -61t63 -148q0 -86 -62.5 -145.5t-153.5 -59.5t-154 59.5t-63 145.5zM449 1741q0 -68 49.5 -116t119.5 -48t119 48t49 116 q0 69 -49 118.5t-119 49.5t-119.5 -49.5t-49.5 -118.5z" />
<glyph unicode="&#xc6;" horiz-adv-x="1968" d="M-37 0l864 1446h981v-60h-870v-602h778v-59h-778v-666h891v-59h-963v381h-602l-223 -381h-78zM301 440h565v949h-10l-41 -82z" />
<glyph unicode="&#xc7;" horiz-adv-x="1343" d="M117 717q0 155 44.5 290.5t127.5 238.5t211 162.5t286 59.5q264 0 431 -106l-17 -66q-178 113 -416 113q-115 0 -212 -35.5t-166.5 -99t-118.5 -150t-73 -189t-24 -216.5q0 -143 37 -265t108 -215.5t184.5 -146.5t256.5 -53q255 0 424 111l17 -64q-167 -106 -443 -106 q-29 0 -41 2v-39q0 -20 21 -37l65 -58q22 -22 33.5 -35t27 -44t15.5 -62q0 -70 -57.5 -114t-155.5 -44q-106 0 -156 45l19 48q42 -39 139 -39q67 0 108.5 28.5t41.5 77.5q0 23 -13 46.5t-24 34.5t-31 28l-61 51q-29 25 -29 55v62q-266 32 -412.5 230t-146.5 501z" />
<glyph unicode="&#xc8;" horiz-adv-x="1306" d="M205 0v1446h942v-60h-871v-602h779v-59h-779v-666h891v-59h-962zM449 1872v31h69l246 -275v-24h-33z" />
<glyph unicode="&#xc9;" horiz-adv-x="1306" d="M205 0v1446h942v-60h-871v-602h779v-59h-779v-666h891v-59h-962zM606 1604v24l246 275h72v-31l-285 -268h-33z" />
<glyph unicode="&#xca;" horiz-adv-x="1306" d="M205 0v1446h942v-60h-871v-602h779v-59h-779v-666h891v-59h-962zM428 1604v22l227 277h58l231 -277v-22h-39l-217 241h-6l-217 -241h-37z" />
<glyph unicode="&#xcb;" horiz-adv-x="1306" d="M205 0v1446h942v-60h-871v-602h779v-59h-779v-666h891v-59h-962zM434 1645v174h74v-174h-74zM864 1645v174h74v-174h-74z" />
<glyph unicode="&#xcc;" horiz-adv-x="481" d="M4 1872v31h72l246 -275v-24h-33zM205 0v1446h71v-1446h-71z" />
<glyph unicode="&#xcd;" horiz-adv-x="481" d="M160 1604v24l246 275h71v-31l-284 -268h-33zM205 0v1446h71v-1446h-71z" />
<glyph unicode="&#xce;" horiz-adv-x="481" d="M-16 1604v22l227 277h57l230 -277v-22h-37l-219 241h-4l-220 -241h-34zM205 0v1446h71v-1446h-71z" />
<glyph unicode="&#xcf;" horiz-adv-x="481" d="M-12 1645v174h73v-174h-73zM205 0v1446h71v-1446h-71zM418 1645v174h74v-174h-74z" />
<glyph unicode="&#xd0;" horiz-adv-x="1529" d="M59 729v57h187v660h442q154 0 280.5 -40.5t225 -124t153 -223t54.5 -325.5q0 -158 -36.5 -283t-100 -208.5t-154.5 -138.5t-195 -79t-227 -24h-442v729h-187zM317 59h377q294 0 463.5 170.5t169.5 503.5q0 315 -170 484t-463 169h-377v-600h451v-57h-451v-670z" />
<glyph unicode="&#xd1;" horiz-adv-x="1470" d="M205 0v1446h102l830 -1262l59 -116h8l-8 127v1251h70v-1446h-101l-831 1262l-60 114h-8l8 -127v-1249h-69zM410 1665l77 78q65 63 125 63q32 0 57.5 -12t57.5 -43l70 -63q44 -35 71 -35q42 0 99 57l57 55l41 -26l-78 -78q-64 -64 -125 -64q-55 0 -114 56l-68 63 q-44 35 -74 35q-41 0 -98 -57l-57 -56z" />
<glyph unicode="&#xd2;" horiz-adv-x="1542" d="M117 725q0 181 50 324.5t139 234t207 137.5t257 47q140 0 258 -47t207.5 -137t139.5 -233.5t50 -325.5q0 -181 -50.5 -324t-139.5 -234.5t-207.5 -139t-257.5 -47.5q-140 0 -258.5 47.5t-207 139t-138 234.5t-49.5 324zM190 725q0 -317 159.5 -501.5t420.5 -184.5 q266 0 424 180t158 506q0 320 -158.5 502t-423.5 182q-263 0 -421.5 -180.5t-158.5 -503.5zM530 1872v31h70l246 -275v-24h-33z" />
<glyph unicode="&#xd3;" horiz-adv-x="1542" d="M117 725q0 181 50 324.5t139 234t207 137.5t257 47q140 0 258 -47t207.5 -137t139.5 -233.5t50 -325.5q0 -181 -50.5 -324t-139.5 -234.5t-207.5 -139t-257.5 -47.5q-140 0 -258.5 47.5t-207 139t-138 234.5t-49.5 324zM190 725q0 -317 159.5 -501.5t420.5 -184.5 q266 0 424 180t158 506q0 320 -158.5 502t-423.5 182q-263 0 -421.5 -180.5t-158.5 -503.5zM688 1604v24l246 275h72v-31l-285 -268h-33z" />
<glyph unicode="&#xd4;" horiz-adv-x="1542" d="M117 725q0 181 50 324.5t139 234t207 137.5t257 47q140 0 258 -47t207.5 -137t139.5 -233.5t50 -325.5q0 -181 -50.5 -324t-139.5 -234.5t-207.5 -139t-257.5 -47.5q-140 0 -258.5 47.5t-207 139t-138 234.5t-49.5 324zM190 725q0 -317 159.5 -501.5t420.5 -184.5 q266 0 424 180t158 506q0 320 -158.5 502t-423.5 182q-263 0 -421.5 -180.5t-158.5 -503.5zM510 1604v22l227 277h58l231 -277v-22h-39l-217 241h-6l-217 -241h-37z" />
<glyph unicode="&#xd5;" horiz-adv-x="1542" d="M117 725q0 181 50 324.5t139 234t207 137.5t257 47q140 0 258 -47t207.5 -137t139.5 -233.5t50 -325.5q0 -181 -50.5 -324t-139.5 -234.5t-207.5 -139t-257.5 -47.5q-140 0 -258.5 47.5t-207 139t-138 234.5t-49.5 324zM190 725q0 -317 159.5 -501.5t420.5 -184.5 q266 0 424 180t158 506q0 320 -158.5 502t-423.5 182q-263 0 -421.5 -180.5t-158.5 -503.5zM444 1665l78 78q65 63 125 63q32 0 57.5 -12t57.5 -43l69 -63q44 -35 72 -35q41 0 98 57l58 55l41 -26l-78 -78q-64 -64 -125 -64q-56 0 -115 56l-67 63q-44 35 -74 35 q-41 0 -98 -57l-58 -56z" />
<glyph unicode="&#xd6;" horiz-adv-x="1542" d="M117 725q0 181 50 324.5t139 234t207 137.5t257 47q140 0 258 -47t207.5 -137t139.5 -233.5t50 -325.5q0 -181 -50.5 -324t-139.5 -234.5t-207.5 -139t-257.5 -47.5q-140 0 -258.5 47.5t-207 139t-138 234.5t-49.5 324zM190 725q0 -317 159.5 -501.5t420.5 -184.5 q266 0 424 180t158 506q0 320 -158.5 502t-423.5 182q-263 0 -421.5 -180.5t-158.5 -503.5zM516 1645v174h74v-174h-74zM946 1645v174h74v-174h-74z" />
<glyph unicode="&#xd7;" d="M78 111l461 458l-461 461l45 47l461 -461l460 461l46 -45l-461 -461l463 -462l-48 -46l-462 463l-459 -460z" />
<glyph unicode="&#xd8;" horiz-adv-x="1542" d="M117 725q0 181 50 324.5t139 234t207 137.5t257 47q183 0 324 -75l94 188h55l-108 -215q137 -89 213.5 -251t76.5 -390q0 -181 -50.5 -324t-139.5 -234.5t-207.5 -139t-257.5 -47.5q-162 0 -293 61l-86 -178h-55l98 200q-150 88 -233.5 255.5t-83.5 406.5zM190 725 q0 -209 71.5 -363t201.5 -237l600 1208q-130 76 -293 76q-263 0 -421.5 -180.5t-158.5 -503.5zM504 100q116 -61 266 -61q266 0 424 180t158 506q0 199 -64.5 348t-181.5 234l-600 -1207h-2z" />
<glyph unicode="&#xd9;" horiz-adv-x="1400" d="M182 477v969h72v-963q0 -52 3.5 -93t14.5 -89t30.5 -84t53 -71t80 -57.5t114 -36t152.5 -13.5q84 0 151.5 13.5t113.5 36t79.5 57.5t52.5 71t30 84t14.5 89t3.5 93v963h72v-969q0 -57 -4.5 -103t-18 -99t-36 -94t-62 -80t-92.5 -64.5t-130.5 -41t-173.5 -15.5 t-173.5 15.5t-131 41t-93.5 64.5t-63 80t-36.5 94t-18 99.5t-4.5 102.5zM457 1872v31h69l246 -275v-24h-33z" />
<glyph unicode="&#xda;" horiz-adv-x="1400" d="M182 477v969h72v-963q0 -52 3.5 -93t14.5 -89t30.5 -84t53 -71t80 -57.5t114 -36t152.5 -13.5q84 0 151.5 13.5t113.5 36t79.5 57.5t52.5 71t30 84t14.5 89t3.5 93v963h72v-969q0 -57 -4.5 -103t-18 -99t-36 -94t-62 -80t-92.5 -64.5t-130.5 -41t-173.5 -15.5 t-173.5 15.5t-131 41t-93.5 64.5t-63 80t-36.5 94t-18 99.5t-4.5 102.5zM614 1604v24l246 275h72v-31l-285 -268h-33z" />
<glyph unicode="&#xdb;" horiz-adv-x="1400" d="M182 477v969h72v-963q0 -52 3.5 -93t14.5 -89t30.5 -84t53 -71t80 -57.5t114 -36t152.5 -13.5q84 0 151.5 13.5t113.5 36t79.5 57.5t52.5 71t30 84t14.5 89t3.5 93v963h72v-969q0 -57 -4.5 -103t-18 -99t-36 -94t-62 -80t-92.5 -64.5t-130.5 -41t-173.5 -15.5 t-173.5 15.5t-131 41t-93.5 64.5t-63 80t-36.5 94t-18 99.5t-4.5 102.5zM436 1604v22l228 277h57l231 -277v-22h-39l-217 241h-6l-217 -241h-37z" />
<glyph unicode="&#xdc;" horiz-adv-x="1400" d="M182 477v969h72v-963q0 -52 3.5 -93t14.5 -89t30.5 -84t53 -71t80 -57.5t114 -36t152.5 -13.5q84 0 151.5 13.5t113.5 36t79.5 57.5t52.5 71t30 84t14.5 89t3.5 93v963h72v-969q0 -57 -4.5 -103t-18 -99t-36 -94t-62 -80t-92.5 -64.5t-130.5 -41t-173.5 -15.5 t-173.5 15.5t-131 41t-93.5 64.5t-63 80t-36.5 94t-18 99.5t-4.5 102.5zM442 1645v174h74v-174h-74zM872 1645v174h74v-174h-74z" />
<glyph unicode="&#xdd;" horiz-adv-x="1116" d="M25 1446h86l450 -842l451 842h80l-498 -909v-537h-72v537zM481 1604v24l246 275h72v-31l-285 -268h-33z" />
<glyph unicode="&#xde;" horiz-adv-x="1318" d="M205 0v1446h71v-295h476q268 0 385 -127q102 -108 102 -293q0 -201 -117 -315q-59 -57 -144.5 -85t-225.5 -28h-476v-303h-71zM276 362h482q211 0 309 95q98 94 98 274q0 163 -88 254q-99 107 -319 107h-482v-730z" />
<glyph unicode="&#xdf;" horiz-adv-x="1087" d="M166 0v1108q0 212 95 314t263 102q175 0 276 -99t101 -247q0 -98 -40.5 -170t-106.5 -140q-49 -46 -49 -59q0 -16 114 -125q46 -45 62.5 -62t51 -59t48.5 -73t26.5 -78.5t12.5 -100.5q0 -163 -97 -246t-245 -83q-80 0 -168 18v57q108 -20 168 -20q120 0 197 66t77 202 q0 56 -13 103t-39 85.5t-50.5 66t-62.5 63.5q-11 11 -17 16q-44 43 -60 59.5t-37.5 40.5t-27.5 38.5t-6 29.5q0 21 14.5 41t51.5 57q38 36 61.5 66t44 83t20.5 113q0 127 -79 212t-226 85q-293 0 -293 -368v-1096h-67z" />
<glyph unicode="&#xe0;" horiz-adv-x="1064" d="M96 279q0 81 34.5 140.5t117 106.5t232.5 71.5t368 25.5v77q0 165 -73 237.5t-226 72.5q-103 0 -197 -26t-157 -62l-27 53q53 36 158 65t225 29q183 0 273.5 -87t90.5 -288v-694h-63v211q-77 -117 -188.5 -172t-231.5 -55q-156 0 -246 79t-90 216zM166 283 q0 -115 72 -179.5t202 -64.5q74 0 142.5 22t115 54.5t81.5 71t52 72t17 56.5v263q-163 -4 -283 -20t-196 -41t-122 -62t-63.5 -78t-17.5 -94zM301 1499v31h70l245 -275v-24h-32z" />
<glyph unicode="&#xe1;" horiz-adv-x="1064" d="M96 279q0 81 34.5 140.5t117 106.5t232.5 71.5t368 25.5v77q0 165 -73 237.5t-226 72.5q-103 0 -197 -26t-157 -62l-27 53q53 36 158 65t225 29q183 0 273.5 -87t90.5 -288v-694h-63v211q-77 -117 -188.5 -172t-231.5 -55q-156 0 -246 79t-90 216zM166 283 q0 -115 72 -179.5t202 -64.5q74 0 142.5 22t115 54.5t81.5 71t52 72t17 56.5v263q-163 -4 -283 -20t-196 -41t-122 -62t-63.5 -78t-17.5 -94zM459 1231v24l246 275h71v-31l-284 -268h-33z" />
<glyph unicode="&#xe2;" horiz-adv-x="1064" d="M96 279q0 81 34.5 140.5t117 106.5t232.5 71.5t368 25.5v77q0 165 -73 237.5t-226 72.5q-103 0 -197 -26t-157 -62l-27 53q53 36 158 65t225 29q183 0 273.5 -87t90.5 -288v-694h-63v211q-77 -117 -188.5 -172t-231.5 -55q-156 0 -246 79t-90 216zM166 283 q0 -115 72 -179.5t202 -64.5q74 0 142.5 22t115 54.5t81.5 71t52 72t17 56.5v263q-163 -4 -283 -20t-196 -41t-122 -62t-63.5 -78t-17.5 -94zM281 1231v22l227 277h57l232 -277v-22h-39l-217 242h-6l-218 -242h-36z" />
<glyph unicode="&#xe3;" horiz-adv-x="1064" d="M96 279q0 81 34.5 140.5t117 106.5t232.5 71.5t368 25.5v77q0 165 -73 237.5t-226 72.5q-103 0 -197 -26t-157 -62l-27 53q53 36 158 65t225 29q183 0 273.5 -87t90.5 -288v-694h-63v211q-77 -117 -188.5 -172t-231.5 -55q-156 0 -246 79t-90 216zM166 283 q0 -115 72 -179.5t202 -64.5q74 0 142.5 22t115 54.5t81.5 71t52 72t17 56.5v263q-163 -4 -283 -20t-196 -41t-122 -62t-63.5 -78t-17.5 -94zM215 1292l78 78q67 64 125 64q32 0 56.5 -12.5t57.5 -43.5l70 -63q44 -35 72 -35q41 0 98 57l57 56l41 -27l-77 -78 q-63 -63 -125 -63q-57 0 -115 55l-68 63q-44 35 -73 35q-42 0 -99 -57l-57 -55z" />
<glyph unicode="&#xe4;" horiz-adv-x="1064" d="M96 279q0 81 34.5 140.5t117 106.5t232.5 71.5t368 25.5v77q0 165 -73 237.5t-226 72.5q-103 0 -197 -26t-157 -62l-27 53q53 36 158 65t225 29q183 0 273.5 -87t90.5 -288v-694h-63v211q-77 -117 -188.5 -172t-231.5 -55q-156 0 -246 79t-90 216zM166 283 q0 -115 72 -179.5t202 -64.5q74 0 142.5 22t115 54.5t81.5 71t52 72t17 56.5v263q-163 -4 -283 -20t-196 -41t-122 -62t-63.5 -78t-17.5 -94zM287 1272v174h73v-174h-73zM717 1272v174h74v-174h-74z" />
<glyph unicode="&#xe5;" horiz-adv-x="1064" d="M96 279q0 81 34.5 140.5t117 106.5t232.5 71.5t368 25.5v77q0 165 -73 237.5t-226 72.5q-103 0 -197 -26t-157 -62l-27 53q53 36 158 65t225 29q183 0 273.5 -87t90.5 -288v-694h-63v211q-77 -117 -188.5 -172t-231.5 -55q-156 0 -246 79t-90 216zM166 283 q0 -115 72 -179.5t202 -64.5q74 0 142.5 22t115 54.5t81.5 71t52 72t17 56.5v263q-163 -4 -283 -20t-196 -41t-122 -62t-63.5 -78t-17.5 -94zM324 1434q0 86 63 147t154 61q90 0 152.5 -60.5t62.5 -147.5q0 -86 -62 -145.5t-153 -59.5t-154 59.5t-63 145.5zM371 1434 q0 -68 50 -116t120 -48t119 48t49 116q0 69 -49 118.5t-119 49.5t-120 -49.5t-50 -118.5z" />
<glyph unicode="&#xe6;" horiz-adv-x="1853" d="M96 279q0 81 34.5 140.5t117 106.5t232.5 71.5t368 25.5v77q0 165 -73 237.5t-226 72.5q-103 0 -197 -26t-157 -62l-27 53q53 36 158 65t225 29q164 0 254 -75.5t96 -243.5q42 147 155.5 233t272.5 86q200 0 311 -125t111 -330q0 -39 -6 -84h-830q-2 -108 23.5 -196 t77.5 -153.5t137.5 -101.5t198.5 -36q184 0 342 119l26 -56q-152 -122 -368 -122q-198 0 -320 94.5t-155 259.5q-41 -166 -159.5 -260t-287.5 -94q-156 0 -245 79t-89 216zM166 283q0 -115 72 -179.5t202 -64.5q127 0 221 60.5t140.5 159t46.5 220.5v99q-163 -4 -283 -20 t-196 -41t-122 -62t-63.5 -78t-17.5 -94zM920 586h761q14 186 -81.5 306t-274.5 120q-172 0 -281 -115.5t-124 -310.5z" />
<glyph unicode="&#xe7;" horiz-adv-x="983" d="M109 516q0 250 124 401.5t353 151.5q174 0 303 -82l-19 -59q-122 82 -284 82q-197 0 -302.5 -135t-105.5 -357q0 -101 23 -185t70.5 -150t127.5 -103t187 -37q163 0 284 82l19 -59q-129 -82 -307 -82q-9 0 -25.5 1t-24.5 1v-43q0 -20 21 -37l65 -58q22 -22 33.5 -35 t27 -44t15.5 -62q0 -70 -57.5 -114t-155.5 -44q-105 0 -155 45l18 48q42 -39 139 -39q67 0 108.5 28.5t41.5 77.5q0 23 -13 46.5t-24 34.5t-31 28l-61 51q-29 25 -29 55v70q-122 21 -205.5 94t-122 181t-38.5 247z" />
<glyph unicode="&#xe8;" horiz-adv-x="1114" d="M109 510q0 250 129 404.5t350 154.5q202 0 313 -125t111 -330q0 -39 -6 -84h-828v-16q0 -101 24.5 -184t75 -148.5t136 -102t198.5 -36.5q184 0 342 119l27 -56q-153 -122 -369 -122q-127 0 -224.5 39t-158 110.5t-90.5 166t-30 210.5zM182 586h760q11 187 -83.5 306.5 t-272.5 119.5q-170 0 -278.5 -115.5t-125.5 -310.5zM342 1499v31h70l245 -275v-24h-32z" />
<glyph unicode="&#xe9;" horiz-adv-x="1114" d="M109 510q0 250 129 404.5t350 154.5q202 0 313 -125t111 -330q0 -39 -6 -84h-828v-16q0 -101 24.5 -184t75 -148.5t136 -102t198.5 -36.5q184 0 342 119l27 -56q-153 -122 -369 -122q-127 0 -224.5 39t-158 110.5t-90.5 166t-30 210.5zM182 586h760q11 187 -83.5 306.5 t-272.5 119.5q-170 0 -278.5 -115.5t-125.5 -310.5zM500 1231v24l245 275h72v-31l-285 -268h-32z" />
<glyph unicode="&#xea;" horiz-adv-x="1114" d="M109 510q0 250 129 404.5t350 154.5q202 0 313 -125t111 -330q0 -39 -6 -84h-828v-16q0 -101 24.5 -184t75 -148.5t136 -102t198.5 -36.5q184 0 342 119l27 -56q-153 -122 -369 -122q-127 0 -224.5 39t-158 110.5t-90.5 166t-30 210.5zM182 586h760q11 187 -83.5 306.5 t-272.5 119.5q-170 0 -278.5 -115.5t-125.5 -310.5zM322 1231v22l227 277h57l232 -277v-22h-39l-217 242h-7l-217 -242h-36z" />
<glyph unicode="&#xeb;" horiz-adv-x="1114" d="M109 510q0 250 129 404.5t350 154.5q202 0 313 -125t111 -330q0 -39 -6 -84h-828v-16q0 -101 24.5 -184t75 -148.5t136 -102t198.5 -36.5q184 0 342 119l27 -56q-153 -122 -369 -122q-127 0 -224.5 39t-158 110.5t-90.5 166t-30 210.5zM182 586h760q11 187 -83.5 306.5 t-272.5 119.5q-170 0 -278.5 -115.5t-125.5 -310.5zM328 1272v174h73v-174h-73zM758 1272v174h73v-174h-73z" />
<glyph unicode="&#xec;" horiz-adv-x="436" d="M-18 1499v31h71l244 -275v-24h-31zM184 0v1053h68v-1053h-68z" />
<glyph unicode="&#xed;" horiz-adv-x="436" d="M139 1231v24l246 275h72v-31l-285 -268h-33zM184 0v1053h68v-1053h-68z" />
<glyph unicode="&#xee;" horiz-adv-x="436" d="M-39 1231v22l227 277h58l229 -277v-22h-37l-217 242h-6l-219 -242h-35zM184 0v1053h68v-1053h-68z" />
<glyph unicode="&#xef;" horiz-adv-x="436" d="M-33 1272v174h74v-174h-74zM184 0v1053h68v-1053h-68zM395 1272v174h74v-174h-74z" />
<glyph unicode="&#xf0;" horiz-adv-x="1142" d="M109 526q0 153 53 275t159.5 195t249.5 73q103 0 179 -40.5t135 -137.5q-100 247 -353 459l-278 -111v49l238 94q-56 48 -150 113l61 29q79 -58 150 -117l233 90v-49l-194 -74q442 -385 442 -842q0 -114 -30.5 -213t-88 -174t-145.5 -118t-197 -43q-214 0 -339 149 t-125 393zM178 528q0 -216 103.5 -350.5t291.5 -134.5q95 0 170.5 38.5t123.5 105.5t73 154t25 187q0 213 -103 347.5t-289 134.5q-126 0 -217 -65.5t-134.5 -173t-43.5 -243.5z" />
<glyph unicode="&#xf1;" horiz-adv-x="1132" d="M184 0v1053h66v-185q52 95 151.5 148t210.5 53q175 0 277 -102q94 -94 94 -291v-676h-68v684q0 163 -77 240q-86 86 -236 86q-80 0 -150 -27.5t-111.5 -66.5t-65 -76t-23.5 -60v-780h-68zM260 1292l78 78q67 64 125 64q32 0 57 -12.5t58 -43.5l69 -63q44 -35 72 -35 q41 0 98 57l57 56l41 -27l-77 -78q-63 -63 -125 -63q-57 0 -115 55l-68 63q-44 35 -73 35q-42 0 -99 -57l-57 -55z" />
<glyph unicode="&#xf2;" horiz-adv-x="1142" d="M109 528q0 152 53 273.5t160 194.5t251 73q212 0 336.5 -150t124.5 -391q0 -111 -31 -209.5t-88 -173t-145.5 -118t-196.5 -43.5q-215 0 -339.5 148.5t-124.5 395.5zM178 528q0 -216 103.5 -350.5t291.5 -134.5q95 0 170.5 38.5t123.5 105.5t73 154t25 187 q0 138 -44 245.5t-134 172t-214 64.5q-126 0 -217 -65.5t-134.5 -172.5t-43.5 -244zM336 1499v31h70l245 -275v-24h-33z" />
<glyph unicode="&#xf3;" horiz-adv-x="1142" d="M109 528q0 152 53 273.5t160 194.5t251 73q212 0 336.5 -150t124.5 -391q0 -111 -31 -209.5t-88 -173t-145.5 -118t-196.5 -43.5q-215 0 -339.5 148.5t-124.5 395.5zM178 528q0 -216 103.5 -350.5t291.5 -134.5q95 0 170.5 38.5t123.5 105.5t73 154t25 187 q0 138 -44 245.5t-134 172t-214 64.5q-126 0 -217 -65.5t-134.5 -172.5t-43.5 -244zM494 1231v24l245 275h72v-31l-285 -268h-32z" />
<glyph unicode="&#xf4;" horiz-adv-x="1142" d="M109 528q0 152 53 273.5t160 194.5t251 73q212 0 336.5 -150t124.5 -391q0 -111 -31 -209.5t-88 -173t-145.5 -118t-196.5 -43.5q-215 0 -339.5 148.5t-124.5 395.5zM178 528q0 -216 103.5 -350.5t291.5 -134.5q95 0 170.5 38.5t123.5 105.5t73 154t25 187 q0 138 -44 245.5t-134 172t-214 64.5q-126 0 -217 -65.5t-134.5 -172.5t-43.5 -244zM315 1231v22l228 277h57l231 -277v-22h-38l-218 242h-6l-217 -242h-37z" />
<glyph unicode="&#xf5;" horiz-adv-x="1142" d="M109 528q0 152 53 273.5t160 194.5t251 73q212 0 336.5 -150t124.5 -391q0 -111 -31 -209.5t-88 -173t-145.5 -118t-196.5 -43.5q-215 0 -339.5 148.5t-124.5 395.5zM178 528q0 -216 103.5 -350.5t291.5 -134.5q95 0 170.5 38.5t123.5 105.5t73 154t25 187 q0 138 -44 245.5t-134 172t-214 64.5q-126 0 -217 -65.5t-134.5 -172.5t-43.5 -244zM250 1292l78 78q67 64 125 64q32 0 56.5 -12.5t57.5 -43.5l70 -63q44 -35 72 -35q41 0 98 57l57 56l41 -27l-78 -78q-63 -63 -125 -63q-31 0 -56.5 12t-57.5 43l-68 63q-44 35 -74 35 q-41 0 -98 -57l-57 -55z" />
<glyph unicode="&#xf6;" horiz-adv-x="1142" d="M109 528q0 152 53 273.5t160 194.5t251 73q212 0 336.5 -150t124.5 -391q0 -111 -31 -209.5t-88 -173t-145.5 -118t-196.5 -43.5q-215 0 -339.5 148.5t-124.5 395.5zM178 528q0 -216 103.5 -350.5t291.5 -134.5q95 0 170.5 38.5t123.5 105.5t73 154t25 187 q0 138 -44 245.5t-134 172t-214 64.5q-126 0 -217 -65.5t-134.5 -172.5t-43.5 -244zM322 1272v174h73v-174h-73zM752 1272v174h73v-174h-73z" />
<glyph unicode="&#xf7;" d="M106 541v61h955v-61h-955zM541 0v213h88v-213h-88zM541 926v215h88v-215h-88z" />
<glyph unicode="&#xf8;" horiz-adv-x="1142" d="M109 528q0 152 53 273.5t160 194.5t251 73q125 0 220 -53l75 155h58l-92 -182q96 -69 148 -188.5t52 -272.5q0 -111 -31 -209.5t-88 -173t-145.5 -118t-196.5 -43.5q-123 0 -217 49l-84 -170h-55l98 194q-100 67 -153 189t-53 282zM178 528q0 -135 41.5 -240.5 t120.5 -168.5l424 842q-84 49 -191 49q-126 0 -217 -65.5t-134.5 -172.5t-43.5 -244zM383 90q80 -47 190 -47q95 0 170.5 38.5t123.5 105.5t73 154t25 187q0 130 -41.5 236t-118.5 168z" />
<glyph unicode="&#xf9;" horiz-adv-x="1132" d="M164 377v676h67v-684q0 -162 78 -240q86 -86 236 -86q80 0 150 27.5t111.5 66t65 75.5t23.5 60v781h68v-1053h-66v184q-52 -95 -151 -147.5t-211 -52.5q-175 0 -277 102q-94 94 -94 291zM346 1499v31h70l246 -275v-24h-33z" />
<glyph unicode="&#xfa;" horiz-adv-x="1132" d="M164 377v676h67v-684q0 -162 78 -240q86 -86 236 -86q80 0 150 27.5t111.5 66t65 75.5t23.5 60v781h68v-1053h-66v184q-52 -95 -151 -147.5t-211 -52.5q-175 0 -277 102q-94 94 -94 291zM504 1231v24l246 275h71v-31l-284 -268h-33z" />
<glyph unicode="&#xfb;" horiz-adv-x="1132" d="M164 377v676h67v-684q0 -162 78 -240q86 -86 236 -86q80 0 150 27.5t111.5 66t65 75.5t23.5 60v781h68v-1053h-66v184q-52 -95 -151 -147.5t-211 -52.5q-175 0 -277 102q-94 94 -94 291zM326 1231v22l227 277h57l232 -277v-22h-39l-217 242h-6l-218 -242h-36z" />
<glyph unicode="&#xfc;" horiz-adv-x="1132" d="M164 377v676h67v-684q0 -162 78 -240q86 -86 236 -86q80 0 150 27.5t111.5 66t65 75.5t23.5 60v781h68v-1053h-66v184q-52 -95 -151 -147.5t-211 -52.5q-175 0 -277 102q-94 94 -94 291zM332 1272v174h74v-174h-74zM762 1272v174h74v-174h-74z" />
<glyph unicode="&#xfd;" horiz-adv-x="878" d="M6 1053h76l344 -926l14 -55h6l17 55l328 926h75l-440 -1205q-25 -68 -47.5 -114.5t-55.5 -93.5t-77 -71t-99 -24q-29 0 -41 9l-6 49q57 0 99 17t71.5 53t48 73.5t39.5 97.5l52 140zM362 1231v24l246 275h72v-31l-285 -268h-33z" />
<glyph unicode="&#xfe;" horiz-adv-x="1150" d="M184 -451v1958h68v-633q135 195 360 195q90 0 162.5 -27.5t122 -75.5t82.5 -115.5t48 -145t15 -166.5q0 -79 -11.5 -152.5t-42 -148.5t-78 -130t-125 -89.5t-177.5 -34.5q-115 0 -209 44.5t-147 143.5v-623h-68zM252 276q0 -22 20 -58t57.5 -76.5t107 -69.5t153.5 -29 q90 0 159 29.5t111 77t68.5 114t36.5 132t10 139.5q0 78 -11.5 145.5t-38.5 129.5t-68.5 105.5t-106 69t-146.5 25.5t-153.5 -30t-112 -71t-63.5 -78t-23 -57v-498z" />
<glyph unicode="&#xff;" horiz-adv-x="878" d="M6 1053h76l344 -926l14 -55h6l17 55l328 926h75l-440 -1205q-25 -68 -47.5 -114.5t-55.5 -93.5t-77 -71t-99 -24q-29 0 -41 9l-6 49q57 0 99 17t71.5 53t48 73.5t39.5 97.5l52 140zM190 1272v174h74v-174h-74zM621 1272v174h73v-174h-73z" />
<glyph unicode="&#x152;" horiz-adv-x="2451" d="M117 725q0 181 50 324.5t139 234t207 137.5t257 47q208 0 363.5 -110t216.5 -324v412h942v-60h-871v-602h779v-59h-779v-666h891v-59h-962v414q-59 -212 -215.5 -323t-364.5 -111q-138 0 -256 47.5t-207 139t-139.5 234.5t-50.5 324zM190 725q0 -318 159 -502t421 -184 q264 0 423 180.5t159 505.5q0 320 -158.5 502t-423.5 182q-263 0 -421.5 -180.5t-158.5 -503.5z" />
<glyph unicode="&#x153;" horiz-adv-x="1970" d="M109 528q0 152 53 273.5t160 194.5t251 73q165 0 279.5 -100.5t146.5 -268.5q37 169 156 269t289 100q201 0 312.5 -125t111.5 -330q0 -16 -6 -84h-830q-2 -108 23 -195.5t77 -153.5t137.5 -102t198.5 -36q184 0 342 119l27 -56q-156 -122 -369 -122q-196 0 -317 94.5 t-156 259.5q-36 -158 -148 -256t-274 -98q-215 0 -339.5 148.5t-124.5 395.5zM178 528q0 -216 103.5 -350.5t291.5 -134.5q95 0 170.5 38.5t123.5 105.5t73 154t25 187q0 138 -44 245.5t-134 172t-214 64.5q-126 0 -217 -65.5t-134.5 -172.5t-43.5 -244zM1034 586h762 q14 186 -81 306t-273 120q-173 0 -282 -115.5t-126 -310.5z" />
<glyph unicode="&#x178;" horiz-adv-x="1116" d="M25 1446h86l450 -842l451 842h80l-498 -909v-537h-72v537zM309 1645v174h74v-174h-74zM739 1645v174h74v-174h-74z" />
<glyph unicode="&#x2c6;" horiz-adv-x="839" d="M162 1231v22l227 277h57l232 -277v-22h-39l-217 242h-6l-217 -242h-37z" />
<glyph unicode="&#x2dc;" horiz-adv-x="839" d="M96 1292l78 78q67 64 125 64q32 0 57 -12.5t58 -43.5l69 -63q44 -35 72 -35q41 0 98 57l58 56l41 -27l-78 -78q-63 -63 -125 -63q-57 0 -115 55l-67 63q-44 35 -74 35q-41 0 -98 -57l-58 -55z" />
<glyph unicode="&#x2000;" horiz-adv-x="975" />
<glyph unicode="&#x2001;" horiz-adv-x="1950" />
<glyph unicode="&#x2002;" horiz-adv-x="975" />
<glyph unicode="&#x2003;" horiz-adv-x="1950" />
<glyph unicode="&#x2004;" horiz-adv-x="650" />
<glyph unicode="&#x2005;" horiz-adv-x="487" />
<glyph unicode="&#x2006;" horiz-adv-x="325" />
<glyph unicode="&#x2007;" horiz-adv-x="325" />
<glyph unicode="&#x2008;" horiz-adv-x="243" />
<glyph unicode="&#x2009;" horiz-adv-x="390" />
<glyph unicode="&#x200a;" horiz-adv-x="108" />
<glyph unicode="&#x2010;" horiz-adv-x="628" d="M94 541v65h441v-65h-441z" />
<glyph unicode="&#x2011;" horiz-adv-x="628" d="M94 541v65h441v-65h-441z" />
<glyph unicode="&#x2012;" horiz-adv-x="628" d="M94 541v65h441v-65h-441z" />
<glyph unicode="&#x2013;" d="M82 545v53h1003v-53h-1003z" />
<glyph unicode="&#x2014;" horiz-adv-x="2048" d="M82 545v53h1884v-53h-1884z" />
<glyph unicode="&#x2018;" horiz-adv-x="385" d="M55 954l224 492h63l-199 -492h-88z" />
<glyph unicode="&#x2019;" horiz-adv-x="385" d="M43 954l199 492h88l-224 -492h-63z" />
<glyph unicode="&#x201a;" horiz-adv-x="385" d="M49 -272l199 491h88l-223 -491h-64z" />
<glyph unicode="&#x201c;" horiz-adv-x="700" d="M55 954l224 492h63l-199 -492h-88zM373 954l223 492h63l-198 -492h-88z" />
<glyph unicode="&#x201d;" horiz-adv-x="700" d="M43 954l199 492h88l-224 -492h-63zM360 954l199 492h86l-221 -492h-64z" />
<glyph unicode="&#x201e;" horiz-adv-x="700" d="M49 -272l199 491h88l-223 -491h-64zM367 -272l196 491h88l-221 -491h-63z" />
<glyph unicode="&#x2022;" horiz-adv-x="598" d="M100 578q0 91 54 144.5t145 53.5q92 0 146.5 -53.5t54.5 -144.5t-54.5 -145t-146.5 -54q-91 0 -145 54t-54 145z" />
<glyph unicode="&#x2026;" horiz-adv-x="2048" d="M393 0v219h88v-219h-88zM981 0v219h88v-219h-88zM1569 0v219h86v-219h-86z" />
<glyph unicode="&#x202f;" horiz-adv-x="390" />
<glyph unicode="&#x2039;" horiz-adv-x="544" d="M59 555v47l279 285h76l-301 -307l301 -312h-74z" />
<glyph unicode="&#x203a;" horiz-adv-x="610" d="M197 268l301 312l-301 307h75l279 -285v-47l-281 -287h-73z" />
<glyph unicode="&#x205f;" horiz-adv-x="487" />
<glyph unicode="&#x20ac;" d="M86 504v53h178q-4 35 -4 113q0 86 8 151h-182v53h188q37 235 160 373.5t332 138.5q77 0 163.5 -19t143.5 -48l-20 -55q-57 27 -138 45t-151 18q-91 0 -164 -34t-123 -95.5t-82 -142.5t-47 -181h498v-53h-506q-6 -70 -6 -143q0 -43 4 -121h508v-53h-502q13 -104 43 -187 t77 -146.5t116.5 -97.5t156.5 -34q84 0 171 17t147 44l18 -55q-59 -29 -155 -47t-181 -18q-205 0 -322.5 140t-146.5 384h-182z" />
<glyph unicode="&#x2122;" horiz-adv-x="1325" d="M72 1407v39h430v-39h-193v-547h-49v547h-188zM608 860v586h76l211 -422h6l211 422h74v-586h-45v512l2 33h-4l-13 -33l-202 -401h-54l-202 401l-11 33h-4v-545h-45z" />
<glyph unicode="&#x25fc;" horiz-adv-x="1054" d="M0 0v1055h1055v-1055h-1055z" />
</font>
</defs>
</svg>
